<?xml version="1.0" standalone="no"?>
<!DOCTYPE svg PUBLIC "-//W3C//DTD SVG 20010904//EN"
 "http://www.w3.org/TR/2001/REC-SVG-20010904/DTD/svg10.dtd">
<svg version="1.0" xmlns="http://www.w3.org/2000/svg"
 width="500.000000pt" height="300.000000pt" viewBox="0 0 500.000000 300.000000"
 preserveAspectRatio="xMidYMid meet">

<g transform="translate(0.000000,300.000000) scale(0.100000,-0.100000)"
fill="#c6c8cc" stroke="none">
<path d="M2310 1729 l0 -311 198 4 c188 3 201 5 247 28 64 33 87 78 87 166 -1
84 -24 130 -82 161 -36 19 -58 23 -142 23 l-98 0 0 40 0 40 130 0 131 0 -3 78
-3 77 -232 3 -233 2 0 -311z m308 -71 c7 -7 12 -27 12 -46 0 -28 -5 -35 -35
-48 -19 -7 -46 -14 -60 -14 -24 0 -25 2 -25 60 l0 60 48 0 c26 0 53 -5 60 -12z"/>
<path d="M2957 2033 c-4 -3 -7 -143 -7 -310 l0 -303 105 0 105 0 0 128 1 127
65 -127 66 -128 124 0 c68 0 124 2 124 5 0 3 -43 75 -95 160 -52 86 -95 159
-95 163 0 5 38 68 85 142 47 74 85 138 85 142 0 5 -53 7 -117 6 l-118 -3 -62
-115 -63 -115 0 118 0 117 -98 0 c-54 0 -102 -3 -105 -7z"/>
<path d="M3625 2027 c-3 -7 -4 -145 -3 -307 l3 -295 235 0 235 0 3 73 3 72
-136 0 -135 0 0 40 0 39 123 3 122 3 3 73 3 72 -126 0 -125 0 0 40 0 40 130 0
130 0 0 80 0 80 -230 0 c-176 0 -232 -3 -235 -13z"/>
<path d="M2020 1747 c-346 -337 -592 -481 -795 -465 -117 10 -223 82 -261 178
-18 46 -38 54 -30 13 3 -16 8 -46 12 -68 15 -90 89 -190 169 -230 32 -16 61
-20 140 -20 95 0 104 2 177 37 94 45 196 119 329 240 95 87 284 285 363 382
76 92 28 61 -104 -67z"/>
<path d="M2050 1554 c-187 -188 -401 -357 -536 -423 -161 -79 -309 -92 -413
-35 -62 33 -125 101 -142 151 -18 56 -29 24 -15 -47 23 -118 85 -203 181 -249
39 -19 66 -24 125 -24 166 1 329 102 601 373 143 142 309 326 309 341 0 20
-20 5 -110 -87z"/>
<path d="M2010 1297 c-222 -219 -424 -367 -577 -425 -56 -21 -86 -25 -173 -26
-95 -1 -110 1 -156 26 -58 31 -118 93 -144 150 -22 50 -30 38 -20 -29 19 -115
89 -213 185 -259 69 -33 170 -33 260 0 138 50 262 142 471 351 143 142 304
320 304 336 0 20 -21 3 -150 -124z"/>
<path d="M2310 1265 l0 -57 36 5 c20 3 41 10 46 15 18 18 4 47 -27 53 l-30 6
30 4 c44 6 36 24 -12 27 l-43 3 0 -56z m50 -15 c0 -5 -4 -10 -10 -10 -5 0 -10
5 -10 10 0 6 5 10 10 10 6 0 10 -4 10 -10z"/>
<path d="M2426 1284 c13 -30 13 -38 2 -45 -9 -6 -10 -11 -2 -19 12 -12 40 -4
47 13 3 7 12 29 21 50 16 36 16 37 -4 37 -12 0 -20 -7 -20 -17 -1 -17 -1 -17
-14 0 -7 9 -20 17 -29 17 -14 0 -15 -3 -1 -36z"/>
<path d="M2522 1268 c3 -53 25 -78 35 -40 3 12 14 22 25 24 12 2 26 10 31 20
17 26 -9 48 -55 48 l-39 0 3 -52z"/>
<path d="M2646 1304 c-20 -20 -20 -43 0 -72 18 -27 55 -29 77 -4 20 22 22 63
5 80 -17 17 -64 15 -82 -4z m54 -40 c0 -31 -23 -28 -28 4 -2 15 2 22 12 22 11
0 16 -9 16 -26z"/>
<path d="M2762 1268 l3 -53 38 1 c51 2 59 12 49 60 -7 37 -10 39 -50 42 l-43
3 3 -53z m58 -18 c0 -5 -4 -10 -10 -10 -5 0 -10 5 -10 10 0 6 5 10 10 10 6 0
10 -4 10 -10z"/>
<path d="M2891 1283 c-7 -21 -15 -44 -18 -52 -4 -11 2 -12 30 -7 21 4 38 2 42
-4 9 -14 25 -13 25 2 0 7 -7 32 -16 55 -21 55 -46 57 -63 6z"/>
<path d="M2991 1302 c-6 -11 -6 -24 1 -35 5 -10 7 -25 4 -32 -9 -25 12 -26 33
-3 l21 22 0 -22 c0 -15 5 -20 15 -16 11 4 15 21 15 55 l0 49 -40 0 c-27 0 -42
-5 -49 -18z m56 -18 c-3 -3 -12 -4 -19 -1 -8 3 -5 6 6 6 11 1 17 -2 13 -5z"/>
<path d="M3150 1271 c0 -53 16 -74 35 -48 11 15 13 15 28 0 24 -24 34 -7 14
26 -15 26 -15 29 0 44 21 21 8 35 -17 19 -12 -7 -21 -8 -25 -2 -3 6 -13 10
-21 10 -10 0 -14 -13 -14 -49z"/>
<path d="M3272 1308 c-7 -7 -12 -27 -12 -45 0 -26 6 -36 25 -45 40 -18 75 3
75 45 0 40 -15 57 -50 57 -14 0 -31 -5 -38 -12z m56 -40 c-2 -13 -10 -23 -18
-23 -8 0 -16 10 -18 23 -3 17 2 22 18 22 16 0 21 -5 18 -22z"/>
<path d="M3390 1271 c0 -53 17 -78 27 -40 l6 23 9 -23 c9 -25 25 -20 38 13 8
19 9 19 9 -7 1 -51 26 -24 29 31 3 50 2 52 -22 52 -19 0 -26 -5 -26 -19 0 -30
-17 -34 -24 -6 -4 16 -13 25 -26 25 -17 0 -20 -7 -20 -49z"/>
<path d="M3534 1306 c-3 -8 -4 -32 -2 -53 5 -52 32 -52 36 0 2 20 7 37 12 37
5 0 10 -17 12 -37 2 -26 8 -38 18 -38 11 0 15 12 15 50 l0 50 -43 3 c-30 2
-44 -1 -48 -12z"/>
<path d="M3670 1296 c-5 -14 -14 -37 -20 -51 -11 -29 3 -43 26 -24 12 10 20
10 35 1 33 -21 40 -4 20 46 -21 54 -46 66 -61 28z"/>
<path d="M3764 1306 c-11 -28 0 -91 16 -91 8 0 16 10 18 23 4 26 22 30 22 4 0
-24 8 -32 26 -25 9 3 14 21 14 54 0 42 -3 49 -20 49 -13 0 -20 -7 -20 -20 0
-11 -4 -20 -10 -20 -5 0 -10 9 -10 20 0 23 -28 27 -36 6z"/>
<path d="M3880 1271 c0 -58 16 -74 41 -43 22 27 29 28 29 1 0 -12 5 -19 13
-17 7 3 13 26 15 56 3 46 1 52 -17 52 -12 0 -23 -9 -27 -22 l-7 -23 -8 23 c-5
12 -15 22 -24 22 -11 0 -15 -12 -15 -49z"/>
<path d="M4010 1305 c-11 -13 -11 -20 -1 -37 9 -14 9 -23 1 -33 -17 -21 8 -30
29 -11 17 16 19 16 25 0 11 -28 25 -3 28 46 3 45 3 45 -33 48 -24 2 -40 -2
-49 -13z"/>
</g>
</svg>
