<?xml version="1.0" standalone="no"?>
<!DOCTYPE svg PUBLIC "-//W3C//DTD SVG 20010904//EN"
 "http://www.w3.org/TR/2001/REC-SVG-20010904/DTD/svg10.dtd">
<svg version="1.0" xmlns="http://www.w3.org/2000/svg"
 width="216.000000pt" height="79.000000pt" viewBox="0 0 216.000000 79.000000"
 preserveAspectRatio="xMidYMid meet">

<g transform="translate(0.000000,79.000000) scale(0.100000,-0.100000)"
fill="#c6c8cc" stroke="none">
<path d="M273 731 c-81 -30 -120 -65 -162 -148 -76 -151 -34 -410 81 -493 117
-85 343 -76 441 18 32 30 61 75 72 109 6 23 5 23 -80 23 -83 0 -87 -1 -111
-29 -84 -100 -264 -30 -264 104 l0 25 235 0 235 0 0 74 c0 152 -57 260 -163
307 -74 32 -211 37 -284 10z m213 -153 c33 -31 68 -104 57 -120 -2 -5 -67 -8
-144 -8 -161 0 -166 3 -131 76 28 56 72 84 135 84 40 0 53 -5 83 -32z"/>
<path d="M1010 741 c-94 -30 -151 -75 -189 -150 -40 -79 -42 -76 60 -74 90 1
91 2 110 32 39 65 142 83 200 34 33 -28 59 -78 59 -113 0 -20 -4 -21 -95 -18
l-95 3 0 -57 0 -58 100 0 100 0 -7 -32 c-9 -49 -41 -103 -73 -121 -35 -21
-102 -22 -140 -2 -32 17 -70 65 -70 89 0 14 -15 16 -94 16 l-94 0 10 -37 c36
-134 138 -212 291 -221 120 -7 198 17 264 83 71 72 98 157 90 289 -11 187 -84
298 -222 335 -45 12 -167 13 -205 2z"/>
<path d="M1500 395 l0 -335 85 0 85 0 0 103 0 103 40 39 c34 33 42 37 51 25 5
-8 41 -72 80 -143 l70 -127 100 0 c63 0 99 4 99 11 0 5 -30 61 -67 122 -36 62
-88 149 -114 195 l-49 83 103 112 c150 164 147 147 24 147 l-104 0 -109 -125
c-60 -69 -112 -125 -116 -125 -5 0 -8 56 -8 125 l0 125 -85 0 -85 0 0 -335z"/>
</g>
</svg>
