<?xml version="1.0"?>
<svg width="512" height="112" xmlns="http://www.w3.org/2000/svg" xmlns:svg="http://www.w3.org/2000/svg" enable-background="new 0 0 512 512" version="1.1" xml:space="preserve">
 <style type="text/css">.st0{fill:#c6c8cc}</style>
 <g class="layer">
  <title>Layer 1</title>
  <g id="XMLID_1_">
   <polygon class="st0" id="XMLID_2_" points="116.16000366210938,30.669998168945312 116.16000366210938,5 1,5 1,107.68000793457031 116.16000366210938,107.68000793457031 116.16000366210938,82.00999450683594 40.13999938964844,82.00999450683594 40.13999938964844,67.69999694824219 101.72000122070312,67.69999694824219 101.72000122070312,44.97999572753906 40.13999938964844,44.97999572753906 40.13999938964844,30.669998168945312 "/>
   <rect class="st0" height="25.67" id="XMLID_3_" width="76.03" x="404.99" y="67.7"/>
   <polygon class="st0" id="XMLID_4_" points="212.80999755859375,5 212.80999755859375,56.339996337890625 169.61000061035156,5 130.47000122070312,5 130.47000122070312,107.68000793457031 169.61000061035156,107.68000793457031 169.61000061035156,56.339996337890625 212.80999755859375,107.68000793457031 251.80999755859375,107.68000793457031 251.80999755859375,5 "/>
   <polygon class="st0" id="XMLID_5_" points="311.42999267578125,62.50999450683594 348.4599914550781,107.68000793457031 393.7699890136719,107.68000793457031 335.2699890136719,33.6199951171875 "/>
   <rect class="st0" height="102.82" id="XMLID_6_" width="39.14" x="266.26" y="5"/>
   <polygon class="st0" id="XMLID_7_" points="304.4100036621094,81.03001403808594 387.6000061035156,5 341.29998779296875,5 290.6700134277344,51.149993896484375 "/>
   <polygon class="st0" id="XMLID_8_" points="457.45001220703125,5 408.0799865722656,107.68000793457031 366.9700012207031,107.68000793457031 416.3500061035156,5 "/>
   <polygon class="st0" id="XMLID_9_" points="422.5199890136719,5 472.8800048828125,107.68000793457031 513,107.68000793457031 462.6400146484375,5 "/>
  </g>
 </g>
</svg>