<?xml version="1.0" encoding="UTF-8"?>
<svg version="1.1" xmlns="http://www.w3.org/2000/svg" width="1461" height="472">
<path d="M0 0 C3.60127117 1.4707178 5.34444947 3.36746524 7.6875 6.4375 C10.74184179 10.37765843 13.83530025 14.27253873 17 18.125 C17.763125 19.05570313 18.52625 19.98640625 19.3125 20.9453125 C19.869375 21.62335938 20.42625 22.30140625 21 23 C19.45555924 26.48509931 17.37524647 29.14322337 14.9375 32.0625 C13.72900391 33.51849609 13.72900391 33.51849609 12.49609375 35.00390625 C11.67238281 35.99261719 10.84867188 36.98132813 10 38 C8.49803678 39.8317253 6.99799201 41.6650256 5.5 43.5 C-12.5 65.5 -30.5 87.5 -48.5 109.5 C-49.24121094 110.40621094 -49.98242188 111.31242187 -50.74609375 112.24609375 C-52.25798227 114.09337522 -53.77101749 115.93971875 -55.28515625 117.78515625 C-56.03667969 118.70167969 -56.78820312 119.61820312 -57.5625 120.5625 C-58.55443359 121.77099609 -58.55443359 121.77099609 -59.56640625 123.00390625 C-63.06894098 127.31601562 -66.52959344 131.6619918 -70 136 C-46.24 136.33 -22.48 136.66 2 137 C2.33 133.7 2.66 130.4 3 127 C4.91881861 118.77649169 9.64631238 112.44467921 16 107 C23.86608471 102.18861072 29.68163321 100 39 100 C39 67 39 34 39 0 C39.66 0 40.32 0 41 0 C42.62890625 1.80078125 42.62890625 1.80078125 44.5625 4.3125 C45.64144531 5.69501953 45.64144531 5.69501953 46.7421875 7.10546875 C47.48726562 8.06066406 48.23234375 9.01585938 49 10 C50.39024375 11.71288522 51.78617184 13.42117112 53.1875 15.125 C56.32095107 18.94523486 59.44268241 22.77456192 62.55493164 26.61206055 C68.92635194 34.46795413 75.34189835 42.28634664 81.77734375 50.08984375 C85.86602663 55.04810335 89.93416549 60.02298977 94 65 C95.49985696 66.83345036 96.9998594 68.66678171 98.5 70.5 C116.5 92.5 116.5 92.5 118.765625 95.26953125 C120.21297051 97.03822795 121.66085301 98.80648543 123.109375 100.57421875 C128.10344547 106.67099456 133.07866708 112.7828447 138.04394531 118.90307617 C139.10031581 120.20456856 140.17177563 121.49392337 141.25610352 122.7722168 C143 125 143 125 144.75756836 127.92504883 C148.32092263 133.46117752 148.32092263 133.46117752 153.9385376 136.56439209 C159.47327521 137.36636203 165.00127142 137.00378097 170.5625 136.6875 C172.25569983 136.63224293 173.94907352 136.58206678 175.64257812 136.53710938 C179.76605635 136.41666188 183.88109195 136.22739705 188 136 C187.47035645 135.40832031 186.94071289 134.81664062 186.39501953 134.20703125 C182.81405253 130.19490829 179.25415757 126.18506544 175.875 122 C175.12734375 121.07960938 174.3796875 120.15921875 173.609375 119.2109375 C173.20009766 118.7065918 172.79082031 118.20224609 172.36914062 117.68261719 C169.63314679 114.32019396 166.87914615 110.97255837 164.125 107.625 C163.52526367 106.89595459 162.92552734 106.16690918 162.30761719 105.41577148 C158.16852665 100.39396566 153.98023182 95.41696261 149.76220703 90.46142578 C146.45706789 86.56805276 143.26470718 82.59643365 140.09375 78.59375 C137.61188959 75.51920651 135.06151487 72.50820956 132.5 69.5 C128.60924384 64.93074686 124.82071079 60.29827428 121.09375 55.59375 C118.61188959 52.51920651 116.06151487 49.50820956 113.5 46.5 C109.60924384 41.93074686 105.82071079 37.29827428 102.09375 32.59375 C99.61188709 29.51920341 97.06143143 26.50828416 94.5 23.5 C89.89151871 18.08503449 85.37678545 12.60517571 81 7 C80.4328125 6.31035156 79.865625 5.62070313 79.28125 4.91015625 C78 3 78 3 78 0 C85.07732263 3.10711725 90.01400844 9.92695273 94.9609375 15.67578125 C97.54753345 18.62410422 100.20836714 21.49914606 102.875 24.375 C107.19767547 29.03923835 111.47816805 33.73694337 115.72265625 38.47265625 C118.29809775 41.33082203 120.89685764 44.16710261 123.5 47 C127.59169207 51.45332617 131.64822977 55.93659888 135.6875 60.4375 C138.27615003 63.30600409 140.88585146 66.1547665 143.5 69 C147.59166107 73.45335487 151.64822946 77.93659854 155.6875 82.4375 C158.27615003 85.30600409 160.88585146 88.1547665 163.5 91 C167.59166107 95.45335487 171.64822946 99.93659854 175.6875 104.4375 C178.27615084 107.30600498 180.88595058 110.15467473 183.5 113 C190.44853319 120.56757773 197.35532513 128.16269118 204 136 C202.51993197 139.36448454 200.60866795 141.74003645 198.125 144.4375 C197.31933594 145.31664062 196.51367188 146.19578125 195.68359375 147.1015625 C194.79800781 148.05804688 193.91242188 149.01453125 193 150 C192.05309068 151.02837452 191.10648361 152.05702742 190.16015625 153.0859375 C187.62868282 155.83540242 185.09154969 158.57958057 182.55273438 161.32226562 C180.01233522 164.0671749 177.47465958 166.81459647 174.9375 169.5625 C174.44088867 170.10036133 173.94427734 170.63822266 173.43261719 171.19238281 C168.72913902 176.28909756 164.04229544 181.40096073 159.35888672 186.51611328 C157.07357504 189.01164407 154.7867042 191.50574527 152.5 194 C151.58332596 194.99999325 150.6666593 195.99999324 149.75 197 C140.58333333 207 131.41666667 217 122.25 227 C121.79633057 227.49491943 121.34266113 227.98983887 120.87524414 228.49975586 C119.95779315 229.50059668 119.04031264 230.50141045 118.12280273 231.50219727 C115.84289449 233.98911261 113.56348707 236.47648315 111.28515625 238.96484375 C107.53837225 243.05615961 103.79020936 247.1461164 100.02734375 251.22265625 C99.528396 251.76325684 99.02944824 252.30385742 98.51538086 252.86083984 C97.51112041 253.94713026 96.50543925 255.03210909 95.49829102 256.11572266 C92.93879651 258.87415457 90.41389032 261.65484104 87.9375 264.48828125 C87.44378906 265.04644531 86.95007813 265.60460937 86.44140625 266.1796875 C85.5025189 267.24325095 84.57231556 268.31456434 83.65234375 269.39453125 C82.375 270.83203125 82.375 270.83203125 80 273 C76 273 76 273 74.2109375 271.234375 C73.60507812 270.41453125 72.99921875 269.5946875 72.375 268.75 C69.17520231 264.53592681 65.90304223 260.42468092 62.5 256.375 C61.63536429 255.34118964 60.77077648 254.30733921 59.90625 253.2734375 C59.2771875 252.52320313 58.648125 251.77296875 58 251 C59.34696832 248.08324748 60.88444687 245.74064765 62.94140625 243.27734375 C63.52059814 242.57947754 64.09979004 241.88161133 64.6965332 241.16259766 C65.31230225 240.42831543 65.92807129 239.6940332 66.5625 238.9375 C67.83867038 237.40245074 69.11471212 235.86729454 70.390625 234.33203125 C71.01130859 233.58775879 71.63199219 232.84348633 72.27148438 232.07666016 C74.46734931 229.43852073 76.64209842 226.78412676 78.8125 224.125 C79.50988281 223.27164063 80.20726562 222.41828125 80.92578125 221.5390625 C81.61027344 220.70117188 82.29476562 219.86328125 83 219 C84.49985696 217.16654964 85.9998594 215.33321829 87.5 213.5 C88.61375 212.13875 88.61375 212.13875 89.75 210.75 C111.125 184.625 111.125 184.625 132.5 158.5 C133.23347656 157.6028125 133.96695312 156.705625 134.72265625 155.78125 C136.31100114 153.84145315 137.90238673 151.90414382 139.49609375 149.96875 C140.30175781 148.9890625 141.10742188 148.009375 141.9375 147 C142.66839844 146.113125 143.39929688 145.22625 144.15234375 144.3125 C146.10145442 141.94099979 146.10145442 141.94099979 148 139 C124.24 138.67 100.48 138.34 76 138 C75.01 133.38 74.02 128.76 73 124 C67.67539924 113.22697056 61.16221461 107.13353325 49.875 102.88671875 C42.29539768 100.54898814 37.08784436 102.22735171 29.90234375 105.453125 C21.81374785 109.76413978 16.15666847 116.05176922 13.03125 124.671875 C9.82693897 135.41225087 10.71289159 143.65005781 15 154 C20.87681177 164.23113345 29.4873057 168.32769142 40 173 C40 206.33 40 239.66 40 274 C35.92792608 270.60660507 33.24665755 268.3605691 30.1875 264.375 C29.50945312 263.50488281 28.83140625 262.63476562 28.1328125 261.73828125 C27.07707031 260.38283203 27.07707031 260.38283203 26 259 C24.52643018 257.18294682 23.04717401 255.37049152 21.5625 253.5625 C20.81097656 252.64597656 20.05945313 251.72945312 19.28515625 250.78515625 C18.53105469 249.86605469 17.77695313 248.94695312 17 248 C15.49971683 246.16689838 13.99971592 244.33356573 12.5 242.5 C11.7575 241.5925 11.015 240.685 10.25 239.75 C-50.5 165.5 -50.5 165.5 -52.74609375 162.75390625 C-54.25798227 160.90662478 -55.77101749 159.06028125 -57.28515625 157.21484375 C-58.03667969 156.29832031 -58.78820312 155.38179687 -59.5625 154.4375 C-60.22378906 153.63183594 -60.88507813 152.82617188 -61.56640625 151.99609375 C-64 149 -64 149 -65.40771484 146.45605469 C-68.63024109 141.26677031 -68.63024109 141.26677031 -73.89309692 138.47885132 C-79.41862765 137.743389 -84.95198207 138.08963029 -90.5 138.375 C-92.19778555 138.42522076 -93.89571389 138.47083768 -95.59375 138.51171875 C-99.7327206 138.62133678 -103.86477738 138.79349303 -108 139 C-107.17145508 139.96147949 -106.34291016 140.92295898 -105.48925781 141.91357422 C-99.21990135 149.19229148 -93.04863978 156.5359564 -87 164 C-82.20258056 169.90385131 -77.36565091 175.76756336 -72.4375 181.5625 C-68.56465012 186.11652443 -64.79377697 190.73494558 -61.08203125 195.421875 C-58.66915908 198.40967168 -56.18203921 201.33056197 -53.6875 204.25 C-49.88255834 208.7063918 -46.21201588 213.24171687 -42.625 217.875 C-38.15015437 223.64753471 -33.44176257 229.17759172 -28.62988281 234.67089844 C-24.97658321 238.84828166 -21.46293682 243.10643625 -18.03125 247.46875 C-15.53953181 250.5738142 -12.95949322 253.59714184 -10.375 256.625 C1 270.0123951 1 270.0123951 1 274 C-2.08374875 272.6374818 -4.07468284 271.12774154 -6.35546875 268.65625 C-7.28214355 267.65996582 -7.28214355 267.65996582 -8.22753906 266.64355469 C-8.87432617 265.93618164 -9.52111328 265.22880859 -10.1875 264.5 C-10.8587793 263.77458008 -11.53005859 263.04916016 -12.22167969 262.30175781 C-16.4619657 257.70964875 -20.66587136 253.08485088 -24.828125 248.421875 C-27.36366572 245.59447348 -29.92988074 242.79590873 -32.5 240 C-36.59178501 235.54675987 -40.64823068 231.0634001 -44.6875 226.5625 C-47.27615003 223.69399591 -49.88585146 220.8452335 -52.5 218 C-55.85290579 214.35070475 -59.18998331 210.68830432 -62.5 207 C-67.62319284 201.29338306 -72.81119939 195.64684646 -78 190 C-83.92769564 183.54903192 -89.8359372 177.08281284 -95.6875 170.5625 C-98.27615068 167.69399519 -100.88593074 164.8453069 -103.5 162 C-110.76624661 154.08741595 -117.95450366 146.11024981 -125 138 C-123.36009262 133.96330491 -120.51610475 131.10947269 -117.5625 128 C-116.471105 126.83486877 -115.3799646 125.669499 -114.2890625 124.50390625 C-113.46196777 123.62436279 -113.46196777 123.62436279 -112.61816406 122.72705078 C-110.20343377 120.1498326 -107.8197858 117.54467635 -105.4375 114.9375 C-104.53003644 113.94653351 -103.62248433 112.9556481 -102.71484375 111.96484375 C-102.26737793 111.47612793 -101.81991211 110.98741211 -101.35888672 110.48388672 C-99.07357504 107.98835593 -96.7867042 105.49425473 -94.5 103 C-93.58332596 102.00000675 -92.6666593 101.00000676 -91.75 100 C-78.91666667 86 -66.08333333 72 -53.25 58 C-52.79633057 57.50508057 -52.34266113 57.01016113 -51.87524414 56.50024414 C-50.95779315 55.49940332 -50.04031264 54.49858955 -49.12280273 53.49780273 C-46.84289449 51.01088739 -44.56348707 48.52351685 -42.28515625 46.03515625 C-37.03061651 40.29744044 -31.76253712 34.57254983 -26.48291016 28.85791016 C-21.7775556 23.76310498 -17.09053825 18.65169145 -12.40722656 13.53662109 C-9.87672 10.77343436 -7.34448614 8.01183088 -4.8125 5.25 C-3.88150337 4.23438146 -2.95051311 3.21875708 -2.01953125 2.203125 C-1.01986328 1.11257812 -1.01986328 1.11257812 0 0 Z " fill="#c6c8cc" transform="translate(224,99)"/>
<path d="M0 0 C33.66 0 67.32 0 102 0 C102 6.93 102 13.86 102 21 C77.25 21 52.5 21 27 21 C27 26.28 27 31.56 27 37 C41.52 37 56.04 37 71 37 C71 44.26 71 51.52 71 59 C56.48 59 41.96 59 27 59 C27 65.27 27 71.54 27 78 C52.08 78 77.16 78 103 78 C103 85.26 103 92.52 103 100 C69.01 100 35.02 100 0 100 C0 67 0 34 0 0 Z " fill="#c6c8cc" transform="translate(502,186)"/>
<path d="M0 0 C13.035 -0.061875 26.07 -0.12375 39.5 -0.1875 C43.60373047 -0.21481201 47.70746094 -0.24212402 51.93554688 -0.27026367 C56.97753906 -0.28381348 56.97753906 -0.28381348 59.34387207 -0.28633118 C60.98354541 -0.29091392 62.62320913 -0.3014151 64.26281738 -0.31672668 C66.75807035 -0.33884783 69.25270981 -0.34171269 71.74804688 -0.34057617 C72.468731 -0.3513705 73.18941513 -0.36216482 73.93193817 -0.37328625 C79.20994048 -0.34133966 83.17409657 0.83034001 88 3 C93.60581928 8.74955823 93.2389215 14.22410386 93.3125 21.8125 C93.35600586 23.29073242 93.35600586 23.29073242 93.40039062 24.79882812 C93.45364075 30.89801561 93.03898628 34.34654828 89 39 C88.01 39.99 88.01 39.99 87 41 C87.78375 41.721875 88.5675 42.44375 89.375 43.1875 C94.34790022 48.51560738 94.33930319 53.47403116 94.3125 60.4375 C94.32861328 61.27087891 94.34472656 62.10425781 94.36132812 62.96289062 C94.36624903 69.18783045 93.35951463 73.57108788 88.875 78.1875 C79.5861505 84.04351382 69.82470736 83.3957356 59.27734375 83.29296875 C57.75753103 83.28854995 56.23771372 83.28549432 54.71789551 83.28381348 C49.12436006 83.26817688 43.53092278 83.22629315 37.9375 83.1875 C25.418125 83.125625 12.89875 83.06375 0 83 C0 55.61 0 28.22 0 0 Z M23 18 C23 22.29 23 26.58 23 31 C38.18 31 53.36 31 69 31 C70.5635348 27.87293041 70.39958487 24.42017557 70 21 C69.34 20.01 68.68 19.02 68 18 C65.98662635 17.56338374 65.98662635 17.56338374 63.64208984 17.65942383 C62.74130707 17.65965042 61.84052429 17.65987701 60.91244507 17.66011047 C59.93844757 17.67559433 58.96445007 17.69107819 57.9609375 17.70703125 C56.46694931 17.71339851 56.46694931 17.71339851 54.94277954 17.71989441 C51.75324775 17.7367232 48.56434167 17.77438324 45.375 17.8125 C43.21615494 17.8275414 41.0573 17.84123075 38.8984375 17.85351562 C33.59871626 17.88664051 28.29946431 17.93845172 23 18 Z M23 49 C23 53.95 23 58.9 23 64 C29.53279339 64.02464347 36.06555998 64.04283291 42.59838867 64.05493164 C44.82267732 64.05997317 47.04696263 64.06680623 49.27124023 64.07543945 C52.46078309 64.08751298 55.65028229 64.09322996 58.83984375 64.09765625 C59.84087631 64.10281754 60.84190887 64.10797882 61.87327576 64.11329651 C63.25459435 64.11340981 63.25459435 64.11340981 64.66381836 64.11352539 C65.88626503 64.11685631 65.88626503 64.11685631 67.13340759 64.12025452 C69.01477856 64.20528245 69.01477856 64.20528245 70 63 C70.07244053 60.98035801 70.08377188 58.95832876 70.0625 56.9375 C70.05347656 55.83277344 70.04445313 54.72804688 70.03515625 53.58984375 C70.02355469 52.73519531 70.01195312 51.88054687 70 51 C67.06120691 49.32044455 64.97388452 48.7530948 61.59863281 48.77294922 C60.7380426 48.77310028 59.87745239 48.77325134 58.99078369 48.77340698 C58.07085632 48.78372955 57.15092896 48.79405212 56.203125 48.8046875 C54.77996979 48.80893234 54.77996979 48.80893234 53.32806396 48.81326294 C50.30191361 48.82444552 47.2760607 48.8495467 44.25 48.875 C42.19661886 48.88503228 40.14323308 48.8941577 38.08984375 48.90234375 C33.05978146 48.92437859 28.02994114 48.95889538 23 49 Z " fill="#c6c8cc" transform="translate(627,203)"/>
<path d="M0 0 C34.38430507 -2.95172911 34.38430507 -2.95172911 42.7734375 3.5390625 C46.21064924 6.96145867 48.95096535 10.74504173 51.5300293 14.84204102 C53.50231393 17.7374112 55.85799945 20.04933902 58.3972168 22.44726562 C60.81996106 24.7943568 62.88655225 27.37420128 65 30 C68.89570793 26.15497972 72.65546127 22.20275023 76.375 18.1875 C76.94718262 17.57092529 77.51936523 16.95435059 78.10888672 16.3190918 C81.68509887 12.45391846 85.20840348 8.55183946 88.6328125 4.55078125 C89.08398438 4.03902344 89.53515625 3.52726563 90 3 C90.37278076 2.47905762 90.74556152 1.95811523 91.12963867 1.42138672 C93.9673165 -0.73511509 96.87679355 -0.37024755 100.29296875 -0.29296875 C101.35201164 -0.28660149 101.35201164 -0.28660149 102.43244934 -0.28010559 C104.68452303 -0.26333034 106.93569742 -0.22568243 109.1875 -0.1875 C110.71548185 -0.17245157 112.24347776 -0.15876344 113.77148438 -0.14648438 C117.51466872 -0.11343089 121.25718196 -0.06165832 125 0 C123.11572277 3.34354847 121.20255125 6.03349381 118.453125 8.70703125 C117.7725 9.37669922 117.091875 10.04636719 116.390625 10.73632812 C115.33101562 11.7640332 115.33101562 11.7640332 114.25 12.8125 C109.51461624 17.42861569 104.97374343 22.09922158 100.66113281 27.11401367 C98.15415137 29.96034402 95.46556907 32.60441983 92.75 35.25 C89.58597863 38.33492083 86.53265825 41.35713539 84 45 C85.55765927 48.75310882 87.8779944 51.09417913 90.76171875 53.921875 C91.23060013 54.38555481 91.69948151 54.84923462 92.18257141 55.32696533 C93.67951598 56.80617025 95.18295749 58.27852701 96.6875 59.75 C98.65321238 61.67879307 100.61562766 63.61085074 102.57421875 65.546875 C103.29240532 66.25667763 103.29240532 66.25667763 104.02510071 66.9808197 C107.24120461 70.18318896 110.23857686 73.50917002 113.18334961 76.95849609 C117.05994424 81.31491113 121.28587098 85.34564966 125.4375 89.4375 C127.25093932 91.22559426 129.06226701 93.01583357 130.87109375 94.80859375 C131.66443115 95.59032959 132.45776855 96.37206543 133.27514648 97.17749023 C135 99 135 99 135 100 C129.96927779 100.32532029 124.94485228 100.55893033 119.90600586 100.71411133 C118.19919107 100.778862 116.49307933 100.86711748 114.78881836 100.98071289 C99.90630592 101.94665569 99.90630592 101.94665569 94.01953125 97.19335938 C90.67900645 94.05703545 87.81348277 90.60611788 85 87 C83.79815585 85.61932441 82.59194833 84.24238115 81.375 82.875 C80.86453125 82.27171875 80.3540625 81.6684375 79.828125 81.046875 C76.91161528 77.78138121 73.77618723 74.73486677 70.64208984 71.67919922 C67.10204148 68.20408296 67.10204148 68.20408296 66 66 C62.2097098 67.50933256 60.41322011 69.68201518 57.9375 72.875 C54.55414652 77.12788089 51.07108683 81.20411631 47.375 85.1875 C43.59773016 89.26123207 39.87785443 93.37319691 36.2421875 97.57421875 C35.51888012 98.40443006 34.7785963 99.2214037 34 100 C31.55169574 100.08843793 29.13179401 100.11528752 26.68359375 100.09765625 C25.95253922 100.0962413 25.22148468 100.09482635 24.46827698 100.09336853 C22.12464368 100.08775408 19.78110461 100.07519922 17.4375 100.0625 C15.85221492 100.05748686 14.26692834 100.05292363 12.68164062 100.04882812 C8.7877239 100.03777997 4.89387795 100.02050572 1 100 C4.51298392 95.12327772 8.09602695 90.683945 12.4375 86.5 C16.21148462 82.85236421 19.69947413 79.08872904 23.13256836 75.11914062 C26.99287685 70.73850555 31.07815866 66.561312 35.12695312 62.35546875 C35.79791016 61.65035156 36.46886719 60.94523437 37.16015625 60.21875 C37.75449463 59.59935547 38.34883301 58.97996094 38.96118164 58.34179688 C41.83611961 55.03962887 44.40774169 51.52608133 47 48 C46.11677063 47.12010155 46.11677063 47.12010155 45.21569824 46.22242737 C39.67994282 40.70666952 34.14656685 35.18853825 28.61588287 29.66769505 C25.77209675 26.82913814 22.9273835 23.99152323 20.08056641 21.15600586 C17.33572084 18.4219878 14.59329142 15.68556796 11.85255432 12.94743156 C10.80398608 11.90071781 9.75453495 10.85488777 8.70420837 9.80993843 C7.23864274 8.35158142 5.77618532 6.89017634 4.31445312 5.42797852 C3.47950317 4.59524918 2.64455322 3.76251984 1.78430176 2.90455627 C0 1 0 1 0 0 Z " fill="#c6c8cc" transform="translate(970,186)"/>
<path d="M0 0 C0.74895035 -0.00511093 1.4979007 -0.01022186 2.26954651 -0.01548767 C4.72543509 -0.02929593 7.1810403 -0.02843367 9.63696289 -0.02612305 C11.35657351 -0.03001458 13.07618318 -0.03435019 14.79579163 -0.03910828 C18.39253868 -0.04655148 21.98918753 -0.04629287 25.5859375 -0.04101562 C30.18009556 -0.03522121 34.77385042 -0.05216047 39.36794186 -0.0753603 C42.91714298 -0.09013787 46.46624787 -0.09096392 50.01547432 -0.08785057 C51.70864218 -0.08836168 53.40181573 -0.09355976 55.09495354 -0.10366249 C57.4685121 -0.11608923 59.84129628 -0.10919881 62.21484375 -0.09765625 C62.90444183 -0.10529999 63.59403992 -0.11294373 64.30453491 -0.12081909 C69.78196992 -0.06235697 75.55999029 0.91824815 79.74235439 4.6911726 C83.46498776 9.00250759 84.29547808 12.28184926 84.33325195 17.82836914 C84.3428595 18.96675232 84.35246704 20.1051355 84.36236572 21.27801514 C84.3666156 22.5092511 84.37086548 23.74048706 84.37524414 25.0090332 C84.38094421 26.27555725 84.38664429 27.5420813 84.39251709 28.84698486 C84.40197182 31.53026929 84.408866 34.21344175 84.41235352 36.89672852 C84.41782521 40.32079154 84.44182808 43.74445429 84.47032547 47.16839218 C84.49353252 50.44857519 84.49540731 53.72877962 84.50024414 57.0090332 C84.51259094 58.23217224 84.52493774 59.45531128 84.53765869 60.71551514 C84.51807802 68.22516151 84.10592406 73.53152779 79.35961914 79.5871582 C74.50659302 83.33092121 69.18234979 83.56982869 63.25830078 83.54931641 C62.48838303 83.55442734 61.71846527 83.55953827 60.92521667 83.56480408 C58.39415595 83.57864121 55.86336931 83.57774784 53.33227539 83.57543945 C51.56399943 83.57932946 49.7957244 83.58366476 48.02745056 83.58842468 C44.32637499 83.59587413 40.62539483 83.59560476 36.92431641 83.59033203 C32.19215226 83.58453742 27.46037952 83.60147433 22.72828007 83.6246767 C19.07789341 83.63944017 15.42760048 83.64028222 11.77718925 83.63716698 C10.03295555 83.63767882 8.2887164 83.64289074 6.5445118 83.6529789 C4.1011963 83.66537769 1.65863631 83.65853159 -0.78466797 83.64697266 C-1.49813385 83.65461639 -2.21159973 83.66226013 -2.94668579 83.6701355 C-8.91767818 83.60800317 -13.41671016 82.1644947 -18.14038086 78.4621582 C-21.40165916 74.23457522 -22.07790516 69.70201318 -22.10253906 64.47216797 C-22.11207108 63.35403214 -22.12160309 62.2358963 -22.13142395 61.08387756 C-22.13051254 59.88999924 -22.12960114 58.69612091 -22.12866211 57.46606445 C-22.13294724 56.22598129 -22.13723236 54.98589813 -22.14164734 53.70823669 C-22.14884578 50.42131366 -22.14577658 47.13457461 -22.14007568 43.84765625 C-22.14038037 41.84038007 -22.15041913 39.83339898 -22.1640625 37.82617188 C-22.18859195 33.95599593 -22.19271672 30.08630854 -22.19116211 26.21606445 C-22.20037186 25.02421036 -22.2095816 23.83235626 -22.21907043 22.60438538 C-22.17786487 15.18668439 -21.65076525 10.00489829 -17.07788086 3.9621582 C-12.058509 0.19762931 -6.07025824 -0.02174389 0 0 Z M2.17211914 20.2746582 C2.17211914 34.4646582 2.17211914 48.6546582 2.17211914 63.2746582 C21.31211914 63.2746582 40.45211914 63.2746582 60.17211914 63.2746582 C60.17211914 49.0846582 60.17211914 34.8946582 60.17211914 20.2746582 C41.03211914 20.2746582 21.89211914 20.2746582 2.17211914 20.2746582 Z " fill="#c6c8cc" transform="translate(873.827880859375,202.725341796875)"/>
<path d="M0 0 C19 0 19 0 23.3125 3.0078125 C24.73266602 4.97680664 24.73266602 4.97680664 26 7.125 C27.02987608 8.60551872 28.05982528 10.08598659 29.08984375 11.56640625 C29.57565918 12.31422363 30.06147461 13.06204102 30.56201172 13.83251953 C32.70626412 17.06455226 35.12872483 20.046555 37.5625 23.0625 C38.44705072 24.19004479 39.32985147 25.31896451 40.2109375 26.44921875 C45.08767177 32.67472443 50.05038573 38.83241782 55 45 C59.26578783 43.45600255 61.43349887 40.24762424 64.0625 36.75 C65.04409593 35.47252184 66.02587169 34.19518184 67.0078125 32.91796875 C67.50571289 32.26489746 68.00361328 31.61182617 68.51660156 30.93896484 C69.91371161 29.11278841 71.32351043 27.29773471 72.7421875 25.48828125 C73.4081897 24.6382251 73.4081897 24.6382251 74.08764648 23.77099609 C74.99181844 22.62659469 75.90288447 21.48760847 76.82055664 20.35400391 C79.7864906 16.66774944 82.40910129 12.90658311 84.85766602 8.85571289 C87.23513104 5.62650256 90.19163048 2.86237662 93 0 C99.27 0 105.54 0 112 0 C112 27.39 112 54.78 112 83 C104.08 83 96.16 83 88 83 C87.67 68.48 87.34 53.96 87 39 C83.7 43.29 80.4 47.58 77 52 C74.74155019 54.82487774 72.47888612 57.64011143 70.1875 60.4375 C69.65447266 61.09169922 69.12144531 61.74589844 68.57226562 62.41992188 C67.53589102 63.69027553 66.49305907 64.9553972 65.44287109 66.21435547 C63.98790745 67.97030079 63.98790745 67.97030079 62.74853516 69.80517578 C60.48886019 72.95103392 59.32826581 73.93303669 55.4765625 74.71875 C50.90839292 73.77431944 49.99160766 72.30933695 47.375 68.5 C46.52897271 67.31041002 45.67985586 66.12301299 44.828125 64.9375 C44.15426758 63.98423828 44.15426758 63.98423828 43.46679688 63.01171875 C40.82895432 59.39390539 37.96791696 55.95732026 35.125 52.5 C34.0439192 51.17737067 32.96317349 49.85446735 31.8828125 48.53125 C31.42277832 47.96986328 30.96274414 47.40847656 30.48876953 46.83007812 C28.64560657 44.56435992 26.82457251 42.28071564 25 40 C24.67 54.19 24.34 68.38 24 83 C16.08 83 8.16 83 0 83 C0 55.61 0 28.22 0 0 Z " fill="#c6c8cc" transform="translate(1250,203)"/>
<path d="M0 0 C7.92 0 15.84 0 24 0 C24.495 26.235 24.495 26.235 25 53 C28.3 50.03 31.6 47.06 35 44 C36.73479114 42.54418203 38.48127383 41.10189527 40.25 39.6875 C44.56450885 36.19567292 48.79709511 32.62423581 53 29 C57.97878218 24.70912897 63.01979669 20.51147441 68.125 16.37109375 C72.24490718 12.97328987 76.28529767 9.48460471 80.31835938 5.984375 C90.13443981 -2.49976294 89.26642066 0 107 0 C107 27.39 107 54.78 107 83 C99.08 83 91.16 83 83 83 C82.67 65.84 82.34 48.68 82 31 C75.07 36.94 75.07 36.94 68 43 C62.5 47.5 62.5 47.5 59.84375 49.65625 C56.52313298 52.39302227 53.25959365 55.1910982 50 58 C44.96171038 62.34015585 39.898271 66.63486585 34.67578125 70.75390625 C31.91195749 72.98926366 31.91195749 72.98926366 29.35546875 75.77734375 C19.31492502 85.78980204 16.62815808 83 0 83 C0 55.61 0 28.22 0 0 Z " fill="#c6c8cc" transform="translate(1120,203)"/>
<path d="M0 0 C13.035 -0.061875 26.07 -0.12375 39.5 -0.1875 C43.60373047 -0.21481201 47.70746094 -0.24212402 51.93554688 -0.27026367 C56.97753906 -0.28381348 56.97753906 -0.28381348 59.34387207 -0.28633118 C60.98354541 -0.29091392 62.62320913 -0.3014151 64.26281738 -0.31672668 C66.75807035 -0.33884783 69.25270981 -0.34171269 71.74804688 -0.34057617 C72.468731 -0.3513705 73.18941513 -0.36216482 73.93193817 -0.37328625 C80.50441103 -0.33350451 85.89281338 1.20664969 90.9375 5.5 C95.33622992 10.83179384 94.2586194 17.56967893 94.29516602 24.14135742 C94.30667992 25.58351457 94.32712291 27.02562929 94.35668945 28.4675293 C94.39953925 30.55807261 94.41555746 32.64735234 94.42578125 34.73828125 C94.44036377 35.98649658 94.45494629 37.23471191 94.4699707 38.52075195 C93.73638379 43.95158164 91.29828624 46.97794487 87.0625 50.3125 C82.51719138 52.81705781 78.51570436 53.12532346 73.38354492 53.11352539 C72.28278122 53.11344986 71.18201752 53.11337433 70.04789734 53.11329651 C68.28202019 53.10555458 68.28202019 53.10555458 66.48046875 53.09765625 C65.26676102 53.0962413 64.05305328 53.09482635 62.80256653 53.09336853 C58.93085248 53.08777665 55.05919653 53.07522558 51.1875 53.0625 C48.56054771 53.05748395 45.93359451 53.05292123 43.30664062 53.04882812 C36.87105343 53.03866132 30.43559165 53.01908413 24 53 C24 62.9 24 72.8 24 83 C16.08 83 8.16 83 0 83 C0 55.61 0 28.22 0 0 Z M24 19 C24 23.95 24 28.9 24 34 C30.37206742 34.02466852 36.74410721 34.04284495 43.11621094 34.05493164 C45.28516117 34.05996891 47.454108 34.06679891 49.62304688 34.07543945 C52.73568563 34.08753151 55.8482796 34.09323428 58.9609375 34.09765625 C59.934935 34.10281754 60.9089325 34.10797882 61.91244507 34.11329651 C63.26361923 34.11340981 63.26361923 34.11340981 64.64208984 34.11352539 C65.43706879 34.115746 66.23204773 34.11796661 67.05111694 34.12025452 C69.08089567 34.12258525 69.08089567 34.12258525 71 33 C72.17990239 29.46029282 72.19569268 26.71816101 72 23 C71.34 21.68 70.68 20.36 70 19 C54.82 19 39.64 19 24 19 Z " fill="#c6c8cc" transform="translate(740,203)"/>
</svg>
