<?xml version="1.0" encoding="UTF-8"?>
<svg version="1.1" xmlns="http://www.w3.org/2000/svg" width="516" height="265">
<path d="M0 0 C0 9.9 0 19.8 0 30 C3.96 30 7.92 30 12 30 C12 20.1 12 10.2 12 0 C30.33333333 0 30.33333333 0 36 1 C37.74292177 2.74292177 37.11980303 5.00623495 37.12442017 7.32824707 C37.11902725 8.472995 37.11902725 8.472995 37.11352539 9.64086914 C37.11367142 10.44080795 37.11381744 11.24074677 37.1139679 12.06492615 C37.11326855 14.72169665 37.10547518 17.37839793 37.09765625 20.03515625 C37.09579215 21.87218691 37.09436821 23.70921806 37.09336853 25.54624939 C37.08954275 30.39109662 37.07971196 35.23591408 37.06866455 40.08074951 C37.05845172 45.02062578 37.05387119 49.96050685 37.04882812 54.90039062 C37.03808974 64.60027353 37.0210126 74.30013429 37 84 C32.82095947 85.82940509 29.00372352 87.41259463 24.5 88.1875 C23.6234375 88.34605469 22.746875 88.50460937 21.84375 88.66796875 C18.58278623 89.04871315 15.28311605 89 12 89 C12 77.78 12 66.56 12 55 C8.04 55 4.08 55 0 55 C0 66.22 0 77.44 0 89 C-9 89 -9 89 -25 85 C-25 57.28 -25 29.56 -25 1 C-12 0 -12 0 0 0 Z " fill="#B1B2B2" transform="translate(108,176)"/>
<path d="M0 0 C0 26.07 0 52.14 0 79 C-7.87768942 77.8746158 -7.87768942 77.8746158 -10.60546875 76.2578125 C-11.49202148 75.74154297 -11.49202148 75.74154297 -12.39648438 75.21484375 C-12.98751953 74.85519531 -13.57855469 74.49554688 -14.1875 74.125 C-15.09145508 73.59712891 -15.09145508 73.59712891 -16.01367188 73.05859375 C-17.69263638 72.06706477 -19.34729295 71.03470332 -21 70 C-21.78503906 69.61972656 -22.57007813 69.23945313 -23.37890625 68.84765625 C-26.22155514 65.60772149 -25.68312159 61.46808137 -25.75 57.3125 C-25.77964844 56.41982422 -25.80929688 55.52714844 -25.83984375 54.60742188 C-25.91049576 52.40543417 -25.95751762 50.20271124 -26 48 C-27.98 51.63 -29.96 55.26 -32 59 C-44.32538083 54.06984767 -51.98008488 39.72581362 -58.80078125 28.88720703 C-59.79446628 27.32344781 -60.84361063 25.79508892 -61.90625 24.27734375 C-63 22 -63 22 -63.23828125 19.45703125 C-61.17287159 15.35878936 -57.29165459 14.36285978 -53.1875 12.6875 C-52.36701172 12.32849609 -51.54652344 11.96949219 -50.70117188 11.59960938 C-46.77906955 9.92961447 -44.35179869 9 -40 9 C-39.505 16.92 -39.505 16.92 -39 25 C-38.06027344 22.97746094 -38.06027344 22.97746094 -37.1015625 20.9140625 C-36.27626891 19.15093528 -35.45073563 17.38792024 -34.625 15.625 C-34.2125 14.73554688 -33.8 13.84609375 -33.375 12.9296875 C-32.77558594 11.65351563 -32.77558594 11.65351563 -32.1640625 10.3515625 C-31.61419678 9.17327881 -31.61419678 9.17327881 -31.05322266 7.97119141 C-30 6 -30 6 -28 4 C-25.52563477 3.2980957 -25.52563477 3.2980957 -22.44140625 2.67578125 C-20.77948242 2.34030273 -20.77948242 2.34030273 -19.08398438 1.99804688 C-17.92189453 1.77181641 -16.75980469 1.54558594 -15.5625 1.3125 C-14.40427734 1.07466797 -13.24605469 0.83683594 -12.05273438 0.59179688 C-10.38887695 0.26211914 -10.38887695 0.26211914 -8.69140625 -0.07421875 C-7.16302124 -0.37718872 -7.16302124 -0.37718872 -5.60375977 -0.6862793 C-3 -1 -3 -1 0 0 Z " fill="#B1B2B2" transform="translate(78,179)"/>
<path d="M0 0 C17.7134765 14.8617713 25.87871267 35.88327793 30 58 C28.35 58 26.7 58 25 58 C24.78085938 57.32195312 24.56171875 56.64390625 24.3359375 55.9453125 C21.23089795 46.83214765 17.37886608 38.43285761 10 32 C8.9171875 30.9790625 8.9171875 30.9790625 7.8125 29.9375 C1.88693232 25.85544227 -4.82449631 23.51253598 -12 23 C-12.72445312 22.93683594 -13.44890625 22.87367188 -14.1953125 22.80859375 C-26.29221517 22.20569346 -37.72285524 27.07574908 -46.99609375 34.625 C-54.25135588 41.36537256 -57.57638854 49.56170823 -60 59 C-61.32 58.67 -62.64 58.34 -64 58 C-66.71419287 47.41787898 -67.37169491 36.87659818 -67.47680664 25.99679565 C-67.49223223 24.50248207 -67.51611859 23.00823118 -67.54858398 21.51419067 C-67.59054403 19.37846597 -67.59729103 17.24545561 -67.59375 15.109375 C-67.60083984 13.86124023 -67.60792969 12.61310547 -67.61523438 11.32714844 C-66.83642294 7.11538565 -65.23493328 5.70723402 -62 3 C-61.29359375 2.37996094 -60.5871875 1.75992188 -59.859375 1.12109375 C-41.9452452 -13.17703578 -18.64127664 -14.02649806 0 0 Z " fill="#B1B2B2" transform="translate(67,109)"/>
<path d="M0 0 C4.31150113 4.0293579 5.07107103 8.00372756 5.4375 13.75 C5.49421875 14.59820312 5.5509375 15.44640625 5.609375 16.3203125 C5.80056276 23.03100274 5.16983021 29.69847132 4.5625 36.375 C4.44503418 37.68078003 4.44503418 37.68078003 4.32519531 39.01293945 C3.73404399 45.01674925 2.72405608 50.85709956 1.4375 56.75 C0.1175 56.75 -1.2025 56.75 -2.5625 56.75 C-2.70945312 56.07195312 -2.85640625 55.39390625 -3.0078125 54.6953125 C-5.76090192 43.27157365 -10.8364207 34.58413084 -20.5625 27.75 C-32.06750379 21.39069411 -43.83443841 18.84096794 -56.88671875 21.40234375 C-67.64415749 24.61166926 -75.68105957 31.22557782 -81.5625 40.75 C-83.90974701 45.63300349 -85.85014264 50.61292792 -87.5625 55.75 C-88.8825 55.75 -90.2025 55.75 -91.5625 55.75 C-91.09161404 37.5566788 -81.71683726 18.03841336 -69.5625 4.75 C-68.99917969 4.10675781 -68.43585938 3.46351562 -67.85546875 2.80078125 C-49.13333308 -17.41210996 -20.80829389 -15.89678668 0 0 Z " fill="#B1B2B2" transform="translate(222.5625,111.25)"/>
<path d="M0 0 C1.46566406 0.26876953 1.46566406 0.26876953 2.9609375 0.54296875 C3.98445312 0.73761719 5.00796875 0.93226563 6.0625 1.1328125 C7.08601562 1.31972656 8.10953125 1.50664062 9.1640625 1.69921875 C16.77790179 3.11551339 16.77790179 3.11551339 19.0625 4.2578125 C19.3925 11.1878125 19.7225 18.1178125 20.0625 25.2578125 C22.53133545 19.71524464 22.53133545 19.71524464 24.96777344 14.15844727 C25.28262695 13.47065186 25.59748047 12.78285645 25.921875 12.07421875 C26.23608398 11.36724854 26.55029297 10.66027832 26.87402344 9.93188477 C28.0625 8.2578125 28.0625 8.2578125 29.98486328 7.4362793 C33.4552193 7.13817939 36.19990681 8.93701608 39.1875 10.5078125 C39.82042969 10.82105469 40.45335937 11.13429687 41.10546875 11.45703125 C44.35494135 13.11971256 46.00071489 14.16513484 48.0625 17.2578125 C46.9453125 20.2890625 46.9453125 20.2890625 45.1875 23.7578125 C42.76011709 28.29766654 42.76011709 28.29766654 42.0625 33.2578125 C44.00259522 34.96313573 44.00259522 34.96313573 46.0625 36.2578125 C45.19273608 40.74067524 42.62873839 43.4680549 39.6875 46.8203125 C39.1925 47.39716797 38.6975 47.97402344 38.1875 48.56835938 C35.89380737 51.22695766 33.56576091 53.7935075 31.0625 56.2578125 C27.0625 54.92447917 23.0625 53.59114583 19.0625 52.2578125 C19.23652344 53.65193359 19.23652344 53.65193359 19.4140625 55.07421875 C20.13188256 64.90835356 20.13188256 64.90835356 17.2578125 68.53515625 C14.61394725 70.39768752 11.96854692 71.83875582 9.0625 73.2578125 C7.48082031 74.13953125 7.48082031 74.13953125 5.8671875 75.0390625 C-2.25373932 79.42875267 -2.25373932 79.42875267 -6.9375 78.2578125 C-6.9375 52.5178125 -6.9375 26.7778125 -6.9375 0.2578125 C-4.27276562 -1.07455469 -2.91440089 -0.53991681 0 0 Z " fill="#B1B2B2" transform="translate(155.9375,178.7421875)"/>
<path d="M0 0 C1.02287109 -0.01836914 1.02287109 -0.01836914 2.06640625 -0.03710938 C6.71980887 -0.05040481 10.8050614 0.28485556 15.125 2.1875 C16.87773169 4.63023503 18.00129904 6.55429202 19.1875 9.25 C19.68165405 10.30453369 19.68165405 10.30453369 20.18579102 11.38037109 C24.48749423 20.79522335 28.72951397 30.8897755 30.125 41.1875 C25.21683762 41.1875 24.84945515 40.18325741 21.125 37.1875 C10.21119463 31.0828674 -0.31662061 29.29350498 -12.65234375 32.0234375 C-30.34025446 37.84774401 -42.55150161 50.74375956 -50.96020508 66.93676758 C-57.75980009 80.42899051 -61.86878397 93.46870073 -64.47363281 108.33081055 C-64.875 110.1875 -64.875 110.1875 -65.875 112.1875 C-67.195 112.1875 -68.515 112.1875 -69.875 112.1875 C-67.53043664 80.55339139 -61.00821447 43.52923478 -38.875 19.1875 C-38.18792969 18.42050781 -37.50085938 17.65351562 -36.79296875 16.86328125 C-26.67521912 6.14307368 -14.7909182 0.01382329 0 0 Z " fill="#B0B1B1" transform="translate(194.875,54.8125)"/>
<path d="M0 0 C1.53231849 1.17264245 3.05471228 2.35847904 4.5625 3.5625 C5.573125 4.284375 6.58375 5.00625 7.625 5.75 C31.97242636 27.09662312 40.9301827 67.79974707 43.5625 98.5625 C43.58775631 100.56234052 43.59557818 102.56277356 43.5625 104.5625 C42.2425 104.5625 40.9225 104.5625 39.5625 104.5625 C39.4173999 103.85867187 39.2722998 103.15484375 39.12280273 102.4296875 C36.19420451 88.44725669 33.17272594 75.2766367 26.5625 62.5625 C26.26118164 61.96050781 25.95986328 61.35851562 25.64941406 60.73828125 C17.71680164 44.99057659 5.64055316 31.45773205 -11.24609375 25.25390625 C-11.96925781 25.02574219 -12.69242188 24.79757813 -13.4375 24.5625 C-14.035625 24.37171875 -14.63375 24.1809375 -15.25 23.984375 C-24.97178908 22.10945854 -35.70280344 22.781838 -44.4375 27.5625 C-46.95769429 29.32966326 -49.32772805 31.16421528 -51.66015625 33.171875 C-53.4375 34.5625 -53.4375 34.5625 -55.4375 34.5625 C-55.82935472 28.55672668 -54.53486184 24.07605088 -52.375 18.5 C-51.90126953 17.26068726 -51.90126953 17.26068726 -51.41796875 15.99633789 C-50.44878829 13.50776514 -49.45168707 11.03304567 -48.4375 8.5625 C-48.13859863 7.83289063 -47.83969727 7.10328125 -47.53173828 6.3515625 C-46.70276504 4.38246081 -45.83300428 2.43961318 -44.9375 0.5 C-44.4321875 -0.60472656 -43.926875 -1.70945312 -43.40625 -2.84765625 C-34.71379367 -14.28237559 -9.54382008 -6.5142617 0 0 Z " fill="#B1B2B2" transform="translate(58.4375,62.4375)"/>
<path d="M0 0 C15.44404042 6.61066246 25.28367163 17.84246833 31.79541016 33.14453125 C41.96405188 58.56891843 44.42813505 86.62637229 46.75 113.6875 C46.8151178 114.42832825 46.8802356 115.16915649 46.94732666 115.93243408 C47.87380163 126.64243707 48.15186753 137.2519977 48 148 C46.68 148 45.36 148 44 148 C43.94577881 147.4009082 43.89155762 146.80181641 43.83569336 146.18457031 C40.36045936 109.34087802 35.67406736 62.90424234 7.28515625 35.8828125 C-2.90828273 27.48411576 -14.07046819 24.24322421 -27 23 C-27.33 22.01 -27.66 21.02 -28 20 C-23.65317062 12.97695104 -16.18587154 7.33330119 -10 2 C-9.35417969 1.38769531 -8.70835938 0.77539062 -8.04296875 0.14453125 C-5.01623997 -1.55113134 -3.29117063 -0.91875111 0 0 Z " fill="#B0B1B1" transform="translate(59,19)"/>
<path d="M0 0 C2.23470372 1.62810041 4.25554278 3.23648767 6.3125 5.0625 C6.8792041 5.55693604 7.4459082 6.05137207 8.02978516 6.56079102 C9.6981045 8.02810517 11.35068782 9.5113848 13 11 C14.31677734 12.17175781 14.31677734 12.17175781 15.66015625 13.3671875 C19.79561946 17.23278803 19.79561946 17.23278803 21 19 C20.6953125 21.22265625 20.6953125 21.22265625 20 23 C19.21238281 23.08636719 18.42476563 23.17273438 17.61328125 23.26171875 C0.89796614 25.41789549 -11.24958705 31.64630367 -22.13671875 44.5625 C-43.52785663 72.54587534 -48.04723945 113.85267099 -51 148 C-52.32 148 -53.64 148 -55 148 C-55.19046123 137.40294863 -54.63570896 126.98943606 -53.75 116.4375 C-53.68375427 115.63585419 -53.61750854 114.83420837 -53.54925537 114.00827026 C-46.73133641 32.33970172 -46.73133641 32.33970172 -22 9 C-7.78759201 -2.53943218 -7.78759201 -2.53943218 0 0 Z " fill="#B0B1B1" transform="translate(175,19)"/>
<path d="M0 0 C9.58777575 0.45656075 20.3408823 2.67044115 29 7 C29 11 29 11 27.49609375 12.60546875 C26.81675781 13.12753906 26.13742188 13.64960938 25.4375 14.1875 C3.7445436 32.32235244 0.14840971 66.86327165 -2.2421875 93.27929688 C-3.76697245 110.80084719 -4.64388312 128.3513287 -5.35400391 145.92285156 C-5.3907019 146.8093187 -5.4273999 147.69578583 -5.46520996 148.6091156 C-5.53292182 150.2626789 -5.59753471 151.91637347 -5.6583252 153.57020569 C-5.84362371 158.1123202 -6.2795845 162.51059958 -7 167 C-8.32 167 -9.64 167 -11 167 C-11.17352018 147.92241992 -10.71591142 128.85976589 -10.25537109 109.78930664 C-10.16769213 106.14713871 -10.08445525 102.5049134 -10.00537109 98.86254883 C-9.24834277 64.08458397 -9.24834277 64.08458397 -8.05078125 47.7265625 C-7.97606598 46.70585159 -7.90135071 45.68514069 -7.82437134 44.63349915 C-6.60470654 29.63937352 -4.18837563 14.46893398 0 0 Z " fill="#B0B1B1" transform="translate(125,0)"/>
<path d="M0 0 C14.07649006 53.41276861 11.49112386 112.10326685 11 167 C9.68 167 8.36 167 7 167 C6.75197745 163.10939542 6.50560968 159.21868889 6.26031494 155.32791138 C6.16972766 153.89500204 6.07870027 152.46212047 5.98724365 151.02926636 C5.4602393 142.76907594 4.96250805 134.5095839 4.5625 126.2421875 C2.42050177 62.65212944 2.42050177 62.65212944 -29 10 C-28.51953125 8.16796875 -28.51953125 8.16796875 -27 6 C-24.32850353 4.7540271 -21.53446246 4.05218699 -18.6875 3.3125 C-17.54764648 2.99442383 -17.54764648 2.99442383 -16.38476562 2.66992188 C-10.88558502 1.15537778 -5.74491837 -0.16414052 0 0 Z " fill="#B0B1B1" transform="translate(102,0)"/>
<path d="M0 0 C2.97 0 5.94 0 9 0 C9.83819158 1.62249941 10.6704116 3.24808497 11.5 4.875 C11.9640625 5.77992188 12.428125 6.68484375 12.90625 7.6171875 C14 10 14 10 14 12 C14.66 12 15.32 12 16 12 C16.19335938 11.38511719 16.38671875 10.77023438 16.5859375 10.13671875 C16.84632813 9.32847656 17.10671875 8.52023438 17.375 7.6875 C17.75785156 6.48673828 17.75785156 6.48673828 18.1484375 5.26171875 C19 3 19 3 21 0 C23.97 0 26.94 0 30 0 C30 9.57 30 19.14 30 29 C27.36 29 24.72 29 22 29 C21.67 25.04 21.34 21.08 21 17 C20.01 18.98 19.02 20.96 18 23 C15.1875 23.3125 15.1875 23.3125 12 23 C10.125 20.5 10.125 20.5 9 18 C8.67 21.63 8.34 25.26 8 29 C5.36 29 2.72 29 0 29 C0 19.43 0 9.86 0 0 Z " fill="#AFB1B1" transform="translate(343,161)"/>
<path d="M0 0 C2.64 0 5.28 0 8 0 C8 0.99 8 1.98 8 3 C8.886875 3.061875 9.77375 3.12375 10.6875 3.1875 C14.95682663 4.23469332 16.41228531 5.45113414 19 9 C20.27254183 13.30946679 20.55502475 16.72344308 18.75 20.875 C18.1725 21.57625 17.595 22.2775 17 23 C16.566875 23.5775 16.13375 24.155 15.6875 24.75 C13.27663596 26.53582522 10.93475732 26.67391585 8 27 C8 27.99 8 28.98 8 30 C5.36 30 2.72 30 0 30 C0 29.01 0 28.02 0 27 C-0.721875 26.9175 -1.44375 26.835 -2.1875 26.75 C-5.58712309 25.84343384 -7.42430315 24.36105545 -10 22 C-11.85511461 18.28977078 -11.44642105 14.04967665 -11 10 C-8.89643648 5.96115805 -7.56650655 5.19827729 -3.25 3.6875 C-2.1775 3.460625 -1.105 3.23375 0 3 C0 2.01 0 1.02 0 0 Z M-2 10 C-4.36692966 12.84826598 -4.36692966 12.84826598 -3.625 16.1875 C-3.41875 17.115625 -3.2125 18.04375 -3 19 C-2.01 19.33 -1.02 19.66 0 20 C0 16.7 0 13.4 0 10 C-0.66 10 -1.32 10 -2 10 Z M8 10 C8 13.3 8 16.6 8 20 C9.32 19.34 10.64 18.68 12 18 C12 16.02 12 14.04 12 12 C10.68 11.34 9.36 10.68 8 10 Z " fill="#B0B1B1" transform="translate(349,115)"/>
<path d="M0 0 C2.31 0 4.62 0 7 0 C7.33 4.62 7.66 9.24 8 14 C8.56589844 13.07316406 9.13179688 12.14632812 9.71484375 11.19140625 C10.45565576 9.98172588 11.19654518 8.77209291 11.9375 7.5625 C12.31068359 6.95083984 12.68386719 6.33917969 13.06835938 5.70898438 C15.88671875 1.11328125 15.88671875 1.11328125 17 0 C19.31 0 21.62 0 24 0 C24 9.57 24 19.14 24 29 C21.69 29 19.38 29 17 29 C16.67 24.38 16.34 19.76 16 15 C15.443125 16.010625 14.88625 17.02125 14.3125 18.0625 C13.54321731 19.37590947 12.7722972 20.68836083 12 22 C11.63777344 22.66773438 11.27554687 23.33546875 10.90234375 24.0234375 C9.72438177 25.98005232 8.72360516 27.49576277 7 29 C4.09819423 29.60521834 1.9965093 29.35551805 -1 29 C-1.02465881 25.03069011 -1.04284023 21.06140966 -1.05493164 17.09204102 C-1.05997057 15.74079614 -1.06680177 14.38955674 -1.07543945 13.03833008 C-1.08752419 11.09979566 -1.09269828 9.161222 -1.09765625 7.22265625 C-1.10289307 6.05484619 -1.10812988 4.88703613 -1.11352539 3.68383789 C-1 1 -1 1 0 0 Z " fill="#B0B1B1" transform="translate(461,161)"/>
<path d="M0 0 C2.31 0 4.62 0 7 0 C7.33 4.62 7.66 9.24 8 14 C8.56847656 12.989375 9.13695312 11.97875 9.72265625 10.9375 C10.50125575 9.62419964 11.28127882 8.31174253 12.0625 7 C12.43310547 6.33226563 12.80371094 5.66453125 13.18554688 4.9765625 C13.56904297 4.34492187 13.95253906 3.71328125 14.34765625 3.0625 C14.68804932 2.47597656 15.02844238 1.88945313 15.37915039 1.28515625 C17 0 17 0 24 0 C24 9.57 24 19.14 24 29 C21.69 29 19.38 29 17 29 C16.67 24.38 16.34 19.76 16 15 C15.43410156 15.92683594 14.86820312 16.85367188 14.28515625 17.80859375 C13.54434424 19.01827412 12.80345482 20.22790709 12.0625 21.4375 C11.68931641 22.04916016 11.31613281 22.66082031 10.93164062 23.29101562 C8.11328125 27.88671875 8.11328125 27.88671875 7 29 C4.69 29 2.38 29 0 29 C0 19.43 0 9.86 0 0 Z " fill="#B1B2B2" transform="translate(289,70)"/>
<path d="M0 0 C7.92 0 15.84 0 24 0 C24 9.57 24 19.14 24 29 C21.36 29 18.72 29 16 29 C16 21.74 16 14.48 16 7 C13.36 7 10.72 7 8 7 C8 14.26 8 21.52 8 29 C5.36 29 2.72 29 0 29 C0 19.43 0 9.86 0 0 Z " fill="#AEB0B0" transform="translate(377,161)"/>
<path d="M0 0 C4.14901633 3.84542977 5.71156016 7.27357473 5.9375 12.875 C5.72880912 18.27374243 4.10081536 21.7487809 0.375 25.6875 C-3.17013745 27.81458247 -6.34952244 28.57706733 -10.4375 28.375 C-15.09320057 26.90069482 -18.34365748 25.18280618 -21.4375 21.375 C-23.25501049 15.92246853 -23.44052799 9.6676354 -21.125 4.375 C-15.47219362 -2.32462238 -8.13295973 -3.84467187 0 0 Z M-13.25 6.4375 C-15.07835164 9.42060004 -15.31775472 11.90238683 -15.4375 15.375 C-14.5530391 18.32207246 -14.5530391 18.32207246 -12.4375 20.375 C-9.54043293 21.62177006 -9.54043293 21.62177006 -6.4375 21.375 C-3.85794581 20.13109295 -3.85794581 20.13109295 -2.4375 17.375 C-1.9456348 14.30775075 -1.81398584 11.42516388 -2.4375 8.375 C-3.6931637 6.56699315 -3.6931637 6.56699315 -5.4375 5.375 C-8.52796979 4.98869128 -10.52662093 4.8410364 -13.25 6.4375 Z " fill="#B0B1B1" transform="translate(334.4375,162.625)"/>
<path d="M0 0 C2.536875 0.0825 5.07375 0.165 7.6875 0.25 C7.6875 9.49 7.6875 18.73 7.6875 28.25 C1.6875 29.25 1.6875 29.25 -0.3125 28.25 C-0.3125 25.28 -0.3125 22.31 -0.3125 19.25 C-3.84170564 22.62810658 -3.84170564 22.62810658 -6.6875 26.5625 C-8.3125 28.25 -8.3125 28.25 -12 28.5 C-13.093125 28.4175 -14.18625 28.335 -15.3125 28.25 C-14.90320739 25.30309317 -14.55173904 23.55364956 -12.6875 21.1875 C-11.08177826 19.37121396 -11.08177826 19.37121396 -11.5 17.25 C-12.25657826 15.22629356 -12.25657826 15.22629356 -13.4375 13.4375 C-14.79402462 10.04618846 -14.24452485 7.72955943 -13.3125 4.25 C-9.16242539 -0.23398866 -5.71341439 -0.26343602 0 0 Z M-6.3125 8.25 C-5.9825 9.57 -5.6525 10.89 -5.3125 12.25 C-3.6625 12.25 -2.0125 12.25 -0.3125 12.25 C-0.3125 10.27 -0.3125 8.29 -0.3125 6.25 C-3.49740007 5.9726499 -3.49740007 5.9726499 -6.3125 8.25 Z " fill="#AFB0B0" transform="translate(488.3125,115.75)"/>
<path d="M0 0 C2.31 0 4.62 0 7 0 C7 3.63 7 7.26 7 11 C9.97 11 12.94 11 16 11 C16 7.37 16 3.74 16 0 C18.64 0 21.28 0 24 0 C24 9.57 24 19.14 24 29 C21.36 29 18.72 29 16 29 C16 25.37 16 21.74 16 18 C13.03 18 10.06 18 7 18 C7 21.63 7 25.26 7 29 C4.69 29 2.38 29 0 29 C0 19.43 0 9.86 0 0 Z " fill="#AFB0B0" transform="translate(432,161)"/>
<path d="M0 0 C2.43375 0.020625 4.8675 0.04125 7.375 0.0625 C7.375 9.3025 7.375 18.5425 7.375 28.0625 C4.735 28.0625 2.095 28.0625 -0.625 28.0625 C-0.625 25.0925 -0.625 22.1225 -0.625 19.0625 C-1.285 19.0625 -1.945 19.0625 -2.625 19.0625 C-2.893125 19.619375 -3.16125 20.17625 -3.4375 20.75 C-3.829375 21.513125 -4.22125 22.27625 -4.625 23.0625 C-5.016875 23.97 -5.40875 24.8775 -5.8125 25.8125 C-6.410625 26.555 -7.00875 27.2975 -7.625 28.0625 C-11.3125 28.375 -11.3125 28.375 -14.625 28.0625 C-15.19138908 23.24819279 -13.45061627 20.85942186 -10.625 17.0625 C-11.12 16.5675 -11.615 16.0725 -12.125 15.5625 C-14.21603757 12.07743738 -14.38392596 9.03666068 -13.625 5.0625 C-9.66845773 -0.08100495 -6.10495766 -0.07266276 0 0 Z M-6.625 8.0625 C-6.295 9.3825 -5.965 10.7025 -5.625 12.0625 C-3.975 12.0625 -2.325 12.0625 -0.625 12.0625 C-0.625 10.0825 -0.625 8.1025 -0.625 6.0625 C-3.80990007 5.7851499 -3.80990007 5.7851499 -6.625 8.0625 Z " fill="#B1B2B2" transform="translate(407.625,115.9375)"/>
<path d="M0 0 C0 9.57 0 19.14 0 29 C-2.31 29 -4.62 29 -7 29 C-7 25.7 -7 22.4 -7 19 C-9.49622533 21.31792353 -11.13651828 23.24479139 -12.8125 26.25 C-13.534375 27.1575 -14.25625 28.065 -15 29 C-18.75 29.375 -18.75 29.375 -22 29 C-22.41176754 25.39703406 -22.1535853 24.21597933 -20 21.1875 C-19.34 20.465625 -18.68 19.74375 -18 19 C-18.309375 18.38125 -18.61875 17.7625 -18.9375 17.125 C-20.95777126 13.08445749 -21.47060729 10.62763839 -21 6 C-15.0427433 -1.61205023 -9.93312727 0 0 0 Z M-12 7 C-12.33 8.65 -12.66 10.3 -13 12 C-10.03 12.495 -10.03 12.495 -7 13 C-7 11.02 -7 9.04 -7 7 C-8.65 7 -10.3 7 -12 7 Z " fill="#AFB0B0" transform="translate(510,161)"/>
<path d="M0 0 C2.64 0 5.28 0 8 0 C8.33 2.64 8.66 5.28 9 8 C9.42410156 7.4225 9.84820312 6.845 10.28515625 6.25 C15.135506 0.10977702 15.135506 0.10977702 19.9375 -0.5 C21.4534375 -0.2525 21.4534375 -0.2525 23 0 C22.48118887 4.1724106 21.28848726 6.25416821 18.4375 9.3125 C17.79683594 10.00988281 17.15617187 10.70726563 16.49609375 11.42578125 C16.00238281 11.94527344 15.50867188 12.46476562 15 13 C16.65825815 15.96740933 18.40675645 18.49895735 20.6875 21 C23 24 23 24 23.3125 26.875 C23.209375 27.57625 23.10625 28.2775 23 29 C19.9375 29.5625 19.9375 29.5625 16 29 C13.24862054 26.27517826 11.11251255 23.23618944 9 20 C8.67 22.97 8.34 25.94 8 29 C5.36 29 2.72 29 0 29 C0 19.43 0 9.86 0 0 Z " fill="#AFB0B0" transform="translate(341,70)"/>
<path d="M0 0 C0 9.57 0 19.14 0 29 C-2.31 29 -4.62 29 -7 29 C-7 25.7 -7 22.4 -7 19 C-9.49622533 21.31792353 -11.13651828 23.24479139 -12.8125 26.25 C-13.534375 27.1575 -14.25625 28.065 -15 29 C-18.75 29.375 -18.75 29.375 -22 29 C-22.40121283 25.48938777 -22.20702695 24.28048812 -20.0625 21.375 C-19.381875 20.59125 -18.70125 19.8075 -18 19 C-17.67 18.01 -17.34 17.02 -17 16 C-17.66 16 -18.32 16 -19 16 C-21.02901001 11.94197998 -21.30073579 9.36675586 -20 5 C-14.32041273 -2.0048243 -9.76596618 0 0 0 Z M-12 7 C-12.6814823 8.89179203 -12.6814823 8.89179203 -13 11 C-12.34 11.66 -11.68 12.32 -11 13 C-9.68 13 -8.36 13 -7 13 C-7 11.02 -7 9.04 -7 7 C-8.65 7 -10.3 7 -12 7 Z " fill="#B0B1B1" transform="translate(516,70)"/>
<path d="M0 0 C2.64 0 5.28 0 8 0 C8 3.63 8 7.26 8 11 C10.97 11 13.94 11 17 11 C17 7.37 17 3.74 17 0 C19.31 0 21.62 0 24 0 C24 9.24 24 18.48 24 28 C22.02 28.33 20.04 28.66 18 29 C17 28 17 28 16.90234375 25.49609375 C16.91974609 23.98208984 16.91974609 23.98208984 16.9375 22.4375 C16.94652344 21.42558594 16.95554687 20.41367188 16.96484375 19.37109375 C16.97644531 18.58863281 16.98804688 17.80617187 17 17 C14.03 17 11.06 17 8 17 C8 20.63 8 24.26 8 28 C5.6739143 28.38063221 3.33944736 28.71269945 1 29 C0 28 0 28 -0.11352539 25.31616211 C-0.10828857 24.14835205 -0.10305176 22.98054199 -0.09765625 21.77734375 C-0.09443359 20.51728516 -0.09121094 19.25722656 -0.08789062 17.95898438 C-0.07953403 16.61848891 -0.07106907 15.27799412 -0.0625 13.9375 C-0.0574866 12.59310058 -0.05292342 11.2486994 -0.04882812 9.90429688 C-0.03699488 6.60282059 -0.02050971 3.30143197 0 0 Z " fill="#B1B2B2" transform="translate(419,116)"/>
<path d="M0 0 C2.31 0 4.62 0 7 0 C7 3.63 7 7.26 7 11 C9.97 11 12.94 11 16 11 C16 7.37 16 3.74 16 0 C18.64 0 21.28 0 24 0 C24 9.24 24 18.48 24 28 C21.36 28 18.72 28 16 28 C16 24.37 16 20.74 16 17 C13.03 17 10.06 17 7 17 C7 20.63 7 24.26 7 28 C4.69 28 2.38 28 0 28 C0 18.76 0 9.52 0 0 Z " fill="#B1B2B2" transform="translate(289,116)"/>
<path d="M0 0 C2.31 0 4.62 0 7 0 C7.33 2.97 7.66 5.94 8 9 C8.42410156 8.3503125 8.84820312 7.700625 9.28515625 7.03125 C11.07007046 4.48921834 12.79128531 2.18739505 15 0 C18.9375 -0.5625 18.9375 -0.5625 22 0 C21.70876501 5.97031739 18.97185616 8.894534 15 13 C16.32990406 17.38868341 18.64006964 20.02428266 21.7578125 23.25390625 C23 25 23 25 23 29 C20.14223486 29.53583096 18.74263197 29.78434148 16 29 C12.9589606 26.28686398 10.47002518 23.23348751 8 20 C7.67 22.97 7.34 25.94 7 29 C4.69 29 2.38 29 0 29 C0 19.43 0 9.86 0 0 Z " fill="#B1B2B2" transform="translate(443,70)"/>
<path d="M0 0 C2.31 0 4.62 0 7 0 C7.33 2.97 7.66 5.94 8 9 C8.50789063 8.3503125 9.01578125 7.700625 9.5390625 7.03125 C10.22742188 6.1959375 10.91578125 5.360625 11.625 4.5 C12.29789062 3.6646875 12.97078125 2.829375 13.6640625 1.96875 C16 0 16 0 19.2734375 -0.28125 C20.62308594 -0.14203125 20.62308594 -0.14203125 22 0 C22.3077917 3.13837611 22.27813784 4.59343628 20.46875 7.23828125 C19.8190625 7.92277344 19.169375 8.60726562 18.5 9.3125 C17.8503125 10.00988281 17.200625 10.70726562 16.53125 11.42578125 C16.0259375 11.94527344 15.520625 12.46476563 15 13 C16.32990406 17.38868341 18.64006964 20.02428266 21.7578125 23.25390625 C23 25 23 25 23 29 C20.14223486 29.53583096 18.74263197 29.78434148 16 29 C12.9589606 26.28686398 10.47002518 23.23348751 8 20 C7.67 22.97 7.34 25.94 7 29 C4.69 29 2.38 29 0 29 C0 19.43 0 9.86 0 0 Z " fill="#B0B1B1" transform="translate(289,161)"/>
<path d="M0 0 C2.64 0 5.28 0 8 0 C9.51352695 3.89071246 11.00841565 7.7883283 12.5 11.6875 C12.92925781 12.79029297 13.35851562 13.89308594 13.80078125 15.02929688 C14.40986328 16.6293457 14.40986328 16.6293457 15.03125 18.26171875 C15.40830078 19.24100342 15.78535156 20.22028809 16.17382812 21.22924805 C16.99483779 23.98268736 17.16394809 26.1468479 17 29 C14.69 29 12.38 29 10 29 C9.34 27.35 8.68 25.7 8 24 C5.03 23.67 2.06 23.34 -1 23 C-1.66 24.98 -2.32 26.96 -3 29 C-4.98 29 -6.96 29 -9 29 C-8.53793076 21.79025301 -6.75144558 16.06169314 -3.9375 9.4375 C-3.37192383 8.06754883 -3.37192383 8.06754883 -2.79492188 6.66992188 C-1.87347684 4.44212439 -0.94178421 2.21925705 0 0 Z M3 11 C2.34 12.98 1.68 14.96 1 17 C2.65 17 4.3 17 6 17 C5.34 15.02 4.68 13.04 4 11 C3.67 11 3.34 11 3 11 Z " fill="#B0B1B1" transform="translate(476,70)"/>
<path d="M0 0 C2.64 0 5.28 0 8 0 C9.51397468 3.72364398 11.00868338 7.45473003 12.5 11.1875 C12.92925781 12.24259766 13.35851562 13.29769531 13.80078125 14.38476562 C14.40986328 15.91713867 14.40986328 15.91713867 15.03125 17.48046875 C15.40830078 18.41785889 15.78535156 19.35524902 16.17382812 20.32104492 C17.01229136 23.0398561 17.16132746 25.17452884 17 28 C14.69 28 12.38 28 10 28 C9.76539063 27.35546875 9.53078125 26.7109375 9.2890625 26.046875 C8.18838927 23.7922092 8.18838927 23.7922092 5.8359375 23.390625 C4.61777344 23.32101563 4.61777344 23.32101563 3.375 23.25 C2.55773437 23.19328125 1.74046875 23.1365625 0.8984375 23.078125 C-0.04128906 23.03945312 -0.04128906 23.03945312 -1 23 C-1.99 25.475 -1.99 25.475 -3 28 C-4.98 28 -6.96 28 -9 28 C-8.50170321 21.22949121 -6.55965066 15.73157049 -3.9375 9.5 C-3.56044922 8.5821875 -3.18339844 7.664375 -2.79492188 6.71875 C-1.87189036 4.4754329 -0.94015476 2.23618189 0 0 Z M3 10 C2.67 11.98 2.34 13.96 2 16 C3.32 15.67 4.64 15.34 6 15 C5.34 13.35 4.68 11.7 4 10 C3.67 10 3.34 10 3 10 Z " fill="#AFB0B0" transform="translate(455,116)"/>
<path d="M0 0 C2.64 0 5.28 0 8 0 C9.33168793 3.13804137 10.63665417 6.28656231 11.9375 9.4375 C12.49727539 10.75524414 12.49727539 10.75524414 13.06835938 12.09960938 C15.41480668 17.82832306 16.60372678 22.81687981 17 29 C14.69 29 12.38 29 10 29 C9.67 27.02 9.34 25.04 9 23 C5.7 23 2.4 23 -1 23 C-1.33 24.98 -1.66 26.96 -2 29 C-4.31 29 -6.62 29 -9 29 C-8.42033198 22.43963016 -6.24886441 16.69819446 -3.9375 10.5625 C-3.37192383 9.03592773 -3.37192383 9.03592773 -2.79492188 7.47851562 C-1.86946564 4.98329819 -0.93769349 2.49063881 0 0 Z M4 11 C3.34 12.98 2.68 14.96 2 17 C3.32 17 4.64 17 6 17 C5.67 15.02 5.34 13.04 5 11 C4.67 11 4.34 11 4 11 Z " fill="#AFB0B0" transform="translate(412,161)"/>
<path d="M0 0 C3.1875 1.625 3.1875 1.625 5 4 C5.3125 7.25 5.3125 7.25 5 10 C2.1875 10.1875 2.1875 10.1875 -1 10 C-2 9 -3 8 -4 7 C-6.59117313 7.00156224 -6.59117313 7.00156224 -9 8 C-11.48038907 11.7205836 -11.46337203 13.59796571 -11 18 C-9.47722993 20.60720318 -9.47722993 20.60720318 -7 22 C-4.32024404 22.01453953 -4.32024404 22.01453953 -2 21 C-1.67 20.34 -1.34 19.68 -1 19 C1.31 19 3.62 19 6 19 C5.75784048 22.55167293 5.35252176 24.55347244 3.125 27.375 C-1.56251775 29.81250923 -5.82451156 29.72958427 -11 29 C-15.16052865 27.21691629 -17.11802538 25.36386349 -18.9375 21.3125 C-20.36935624 16.73567381 -20.26135497 12.61076379 -19 8 C-14.59021142 -0.36339214 -8.90641895 -1.05401408 0 0 Z " fill="#B1B2B2" transform="translate(434,70)"/>
<path d="M0 0 C13 0 13 0 18 3 C20.56599956 6.07919947 21.00845985 7.51778879 20.9375 11.5625 C19.88814046 15.41015164 19.30583039 16.79611308 16 19 C13.29642739 19.60998388 10.78307229 19.81446185 8 20 C8 22.97 8 25.94 8 29 C5.36 29 2.72 29 0 29 C0 19.43 0 9.86 0 0 Z M7 7 C7 8.98 7 10.96 7 13 C8.65 13 10.3 13 12 13 C12.38218767 11.34385343 12.71395102 9.67542976 13 8 C11.93354885 6.70366379 11.93354885 6.70366379 9.4375 6.9375 C8.633125 6.958125 7.82875 6.97875 7 7 Z " fill="#B0B1B1" transform="translate(318,70)"/>
<path d="M0 0 C5.94 0 11.88 0 18 0 C18 1.98 18 3.96 18 6 C14.37 6 10.74 6 7 6 C7 7.65 7 9.3 7 11 C10.3 11 13.6 11 17 11 C17 12.98 17 14.96 17 17 C13.7 17 10.4 17 7 17 C7 18.65 7 20.3 7 22 C10.63 22 14.26 22 18 22 C18 23.98 18 25.96 18 28 C12.06 28 6.12 28 0 28 C0 18.76 0 9.52 0 0 Z " fill="#B1B2B2" transform="translate(318,116)"/>
<path d="M0 0 C3.125 -0.625 3.125 -0.625 7 0 C9.49515761 3.08511895 11.26536376 6.44177181 13 10 C14.65 6.7 16.3 3.4 18 0 C20.31 0 22.62 0 25 0 C24.45115263 4.40784158 23.36494001 7.70569134 21.27734375 11.6171875 C20.73916016 12.63554688 20.20097656 13.65390625 19.64648438 14.703125 C19.08251953 15.74984375 18.51855469 16.7965625 17.9375 17.875 C17.08575195 19.47988281 17.08575195 19.47988281 16.21679688 21.1171875 C14.81869535 23.74890801 13.41292765 26.37621846 12 29 C10.02 29 8.04 29 6 29 C5.87086209 23.31793192 5.87086209 23.31793192 6.71875 21.23046875 C7.16601507 17.68340823 5.24386297 15.06742176 3.5625 12.0625 C-0.51292082 4.74226794 -0.51292082 4.74226794 0 0 Z " fill="#AFB0B0" transform="translate(365,70)"/>
<path d="M0 0 C7.59 0 15.18 0 23 0 C23 2.31 23 4.62 23 7 C20.36 7 17.72 7 15 7 C15 14.26 15 21.52 15 29 C12.36 29 9.72 29 7 29 C7 21.74 7 14.48 7 7 C4.69 7 2.38 7 0 7 C0 4.69 0 2.38 0 0 Z " fill="#B1B2B2" transform="translate(391,70)"/>
<path d="M0 0 C7.59 0 15.18 0 23 0 C23 1.98 23 3.96 23 6 C20.36 6 17.72 6 15 6 C15 13.26 15 20.52 15 28 C12.69 28 10.38 28 8 28 C8 20.74 8 13.48 8 6 C5.36 6 2.72 6 0 6 C0 4.02 0 2.04 0 0 Z " fill="#B1B2B2" transform="translate(369,116)"/>
</svg>
