<svg version="1.1" id="Layer_1" xmlns="http://www.w3.org/2000/svg" xmlns:xlink="http://www.w3.org/1999/xlink" x="0px" y="0px"
	 width="100%" viewBox="0 0 200 85" enable-background="new 0 0 200 85" xml:space="preserve">

<path fill="#c6c8cc" opacity="1.000000" stroke="none" 
	d="
M11.615091,70.408768 
	C11.615085,74.821213 11.615085,78.782799 11.615085,82.866425 
	C9.001555,82.866425 6.883391,82.866425 4.521104,82.866425 
	C4.521104,72.595100 4.521104,62.508709 4.521104,52.473408 
	C9.248158,50.939823 12.481010,52.046497 14.542133,56.728500 
	C15.844207,59.686253 17.919989,62.303402 19.972820,65.592606 
	C22.941685,60.822926 25.625078,56.511879 28.343405,52.144707 
	C30.618988,52.144707 32.908237,52.144707 35.407471,52.144707 
	C35.407471,62.433777 35.407471,72.526749 35.407471,82.836174 
	C32.932156,82.836174 30.679167,82.836174 27.982147,82.836174 
	C27.982147,77.693718 27.982147,72.647682 27.982147,67.601646 
	C27.694347,67.513947 27.406546,67.426247 27.118746,67.338554 
	C24.901766,70.895531 22.684786,74.452515 20.014603,78.736618 
	C17.355913,74.534065 14.980227,70.778847 11.917715,65.937965 
	C11.750687,68.156746 11.682893,69.057320 11.615091,70.408768 
z"/>
<path fill="#c6c8cc" opacity="1.000000" stroke="none" 
	d="
M52.041740,34.616524 
	C44.861492,43.942581 32.086353,43.103275 27.317598,33.157471 
	C29.294109,32.016682 31.287638,30.866068 32.842690,29.968533 
	C35.609463,31.071865 37.979095,32.742584 40.312237,32.693092 
	C41.878002,32.659882 43.392059,30.189011 44.929249,28.808815 
	C43.469658,27.544189 42.141438,25.440012 40.523579,25.186859 
	C36.977154,24.631937 33.283974,25.014936 28.989115,25.014936 
	C29.464670,17.939938 29.912998,11.269979 30.380947,4.308138 
	C37.448895,4.308138 44.190773,4.308138 51.315788,4.308138 
	C51.315788,6.674271 51.315788,9.049722 51.315788,11.840700 
	C47.048874,11.840700 42.951118,11.840700 38.352215,11.840700 
	C38.220425,13.920419 38.111851,15.633736 37.967396,17.913288 
	C43.238369,16.003506 47.450779,17.213295 50.684830,21.081123 
	C54.013054,25.061579 53.743668,29.620674 52.041740,34.616524 
z"/>
<path fill="#c6c8cc" opacity="1.000000" stroke="none" 
	d="
M138.970001,4.162448 
	C143.104630,4.109030 147.242432,3.928489 151.373184,4.031098 
	C158.069107,4.197426 163.913513,9.344135 164.001190,14.948989 
	C164.133118,23.381149 159.369965,28.701227 151.385071,29.001833 
	C149.765274,29.062815 148.141190,29.010656 146.016052,29.010656 
	C146.016052,32.247822 146.016052,35.182217 145.740784,38.674423 
	C145.227539,39.434864 145.072662,39.688282 145.000854,39.992485 
	C143.280991,40.055519 141.561127,40.118557 139.316956,39.862694 
	C138.589630,39.266216 138.321762,39.083889 137.989044,38.996807 
	C137.924225,27.969995 137.859390,16.943182 138.103302,5.372775 
	C138.677292,4.673292 138.863297,4.451048 138.970001,4.162448 
M152.806824,20.896231 
	C155.582581,19.509146 156.845322,17.389534 155.309952,14.472591 
	C153.117172,10.306723 149.442642,12.362967 146.272736,12.196578 
	C146.272736,15.347464 146.272736,18.086832 146.272736,20.998772 
	C148.350266,20.998772 150.151352,20.998772 152.806824,20.896231 
z"/>
<path fill="#c6c8cc" opacity="1.000000" stroke="none" 
	d="
M142.003555,52.295677 
	C145.820190,52.196682 149.640610,51.939346 153.452682,52.030754 
	C162.117340,52.238514 165.584335,58.789322 161.009964,66.667953 
	C164.184875,69.922180 165.632004,73.867126 163.321793,78.211075 
	C160.967773,82.637390 156.698975,83.215424 152.153336,83.030167 
	C148.691498,82.889069 145.219299,83.002151 141.210266,83.002151 
	C141.210266,73.107796 141.210266,63.518509 141.430237,53.400528 
	C141.846466,52.727924 141.964264,52.535873 142.003555,52.295677 
M154.817230,76.243202 
	C155.534790,74.856125 156.252350,73.469048 156.969925,72.081978 
	C154.216324,71.296783 151.462723,70.511597 148.478027,69.660500 
	C148.478027,72.547745 148.478027,74.172859 148.478027,76.342148 
	C150.440842,76.342148 152.228104,76.342148 154.817230,76.243202 
M148.353531,60.597576 
	C147.542236,64.800110 150.564407,64.350632 152.868286,63.928741 
	C154.053802,63.711655 154.998642,62.180134 156.052246,61.242577 
	C154.379333,60.424931 152.762436,59.428650 151.005875,58.877773 
	C150.305603,58.658169 149.296661,59.422886 148.353531,60.597576 
z"/>
<path fill="#c6c8cc" opacity="1.000000" stroke="none" 
	d="
M41.471634,74.181747 
	C38.738899,66.520943 39.739197,59.639130 46.148342,55.142181 
	C52.740162,50.517063 63.678246,49.523598 69.735916,58.248398 
	C74.676987,65.364975 72.687889,76.095558 65.292267,81.082283 
	C59.245533,85.159477 45.858372,84.557060 41.471634,74.181747 
M49.604031,61.157711 
	C48.822277,62.789085 47.698242,64.345772 47.322941,66.065834 
	C46.197010,71.226128 51.718914,78.156281 56.074726,77.179131 
	C60.256599,76.241005 64.132240,74.706726 65.026634,69.785927 
	C65.724800,65.944687 65.099281,62.448662 61.622105,60.051666 
	C57.676201,57.331551 53.839993,57.789238 49.604031,61.157711 
z"/>
<path fill="#c6c8cc" opacity="1.000000" stroke="none" 
	d="
M75.941002,20.207775 
	C82.601112,18.026554 83.117973,18.369801 84.068985,24.431856 
	C84.208656,25.322197 85.144058,26.089384 85.716805,26.909691 
	C86.435829,27.939484 87.649910,28.899874 87.797554,30.004225 
	C88.414574,34.619507 84.159325,36.874653 81.923286,39.767918 
	C80.058868,42.180340 76.454475,39.661983 75.176994,34.815250 
	C70.113113,34.815250 64.867851,34.815250 58.217220,34.815250 
	C59.243061,30.435726 59.658165,26.732084 61.000233,23.402020 
	C62.856201,18.796814 65.890144,14.643293 67.543571,9.985369 
	C69.602753,4.184403 73.280640,2.893414 79.313133,4.507445 
	C75.552269,12.072152 71.826874,19.565533 67.705811,27.854757 
	C70.735886,27.385359 73.003365,27.034100 75.846817,26.593611 
	C75.846817,24.566269 75.846817,22.606949 75.941002,20.207775 
z"/>
<path fill="#c6c8cc" opacity="1.000000" stroke="none" 
	d="
M178.571564,78.064919 
	C176.009476,81.065186 174.280823,84.796410 168.369690,82.131897 
	C171.630112,72.310669 174.951233,62.306622 178.309525,52.190598 
	C181.492752,52.190598 184.446472,52.190598 187.578125,52.190598 
	C190.383286,60.312698 193.192230,68.378601 195.952927,76.460991 
	C198.051208,82.604065 197.658310,83.070549 190.497482,82.897797 
	C189.945816,81.538292 189.346313,80.060898 188.528275,78.044983 
	C185.540405,78.044983 182.274170,78.044983 178.571564,78.064919 
M181.111984,65.615326 
	C180.641968,67.882530 180.171951,70.149734 179.571945,73.043953 
	C182.436234,72.266533 184.285858,71.764511 186.406204,71.189018 
	C185.856430,69.176704 185.388245,67.269363 184.806091,65.397469 
	C184.389420,64.057671 183.820053,62.765366 183.001770,60.621006 
	C182.249680,62.594761 181.807983,63.753956 181.111984,65.615326 
z"/>
<path fill="#c6c8cc" opacity="1.000000" stroke="none" 
	d="
M117.874390,52.979416 
	C117.874390,56.721916 117.874390,60.464413 117.874390,65.605675 
	C121.585129,60.441803 124.430038,56.482819 127.122398,52.736122 
	C129.319763,52.877537 131.268066,53.002922 134.330444,53.200005 
	C131.178940,58.180622 128.299393,62.731415 125.435730,67.257126 
	C128.690125,72.168442 131.872284,76.970764 135.262863,82.087601 
	C130.018738,83.886795 127.366669,82.797455 125.249840,79.183968 
	C123.268723,75.802132 120.645187,72.796631 117.950256,69.906242 
	C117.533501,70.285141 117.395111,70.433861 117.421135,70.472855 
	C117.543571,70.656303 117.711121,70.809639 117.862579,70.973717 
	C117.916061,74.353363 117.969543,77.733017 117.754044,81.649368 
	C117.240570,82.355232 117.085678,82.584839 117.020378,82.874893 
	C115.615822,82.923035 114.211258,82.971176 112.308441,82.752106 
	C111.642471,82.244034 111.415794,82.089828 111.130150,82.022285 
	C111.080582,72.649391 111.031013,63.276501 111.248260,53.356152 
	C111.754387,52.641586 111.908302,52.416164 111.976830,52.132431 
	C113.381821,52.082142 114.786812,52.031857 116.690491,52.248940 
	C117.357430,52.759670 117.585831,52.914040 117.874390,52.979416 
z"/>
<path fill="#c6c8cc" opacity="1.000000" stroke="none" 
	d="
M76.748428,67.951096 
	C78.181511,63.760563 78.889755,59.449863 81.230087,56.385731 
	C85.130630,51.278858 94.755241,50.069065 100.375946,53.308311 
	C102.112022,54.308826 104.309959,56.045715 104.522499,57.676624 
	C104.699860,59.037594 102.284439,60.736450 101.034431,62.264709 
	C94.541061,57.344975 89.693314,57.124428 86.021049,61.218052 
	C83.031532,64.550591 82.918190,70.900894 86.171646,73.950371 
	C90.434700,77.946152 93.191292,78.777252 100.730606,72.815247 
	C102.102356,74.288712 104.932350,76.161369 104.663635,77.307579 
	C104.237640,79.124695 102.001518,81.083580 100.074303,81.888718 
	C89.339859,86.373283 77.220428,81.054222 76.748428,67.951096 
z"/>
<path fill="#c6c8cc" opacity="1.000000" stroke="none" 
	d="
M179.090363,39.016178 
	C179.029068,34.540585 178.944855,30.065153 178.913086,25.589352 
	C178.882599,21.293491 178.906494,16.997244 178.906494,12.249804 
	C175.802444,12.249804 172.899109,12.249804 169.702087,12.249804 
	C169.702087,9.395967 169.702087,6.991242 169.702087,4.287827 
	C178.482330,4.287827 187.198792,4.287827 196.229584,4.287827 
	C196.229584,6.612059 196.229584,9.017688 196.229584,11.904535 
	C193.353638,11.904535 190.461639,11.904535 187.052658,11.904535 
	C187.052658,20.939165 187.052658,29.516205 186.764160,38.656742 
	C186.226639,39.425125 186.067276,39.685005 185.997559,39.999878 
	C184.279739,40.062069 182.561905,40.124260 180.335342,39.875664 
	C179.655838,39.281818 179.410416,39.098919 179.090363,39.016178 
z"/>
<path fill="#c6c8cc" opacity="1.000000" stroke="none" 
	d="
M112.118233,40.004101 
	C105.897369,42.127785 97.256783,37.479614 93.770073,30.133759 
	C87.958122,17.889099 95.703529,5.135544 110.567871,3.609208 
	C110.954536,6.417392 110.948181,8.738079 110.589218,11.145789 
	C107.564819,12.752879 104.187988,13.689157 102.354561,15.903403 
	C97.033707,22.329466 101.369995,32.492558 111.729019,33.340195 
	C111.816147,35.806343 111.967186,37.905220 112.118233,40.004101 
z"/>
<path fill="#c6c8cc" opacity="1.000000" stroke="none" 
	d="
M110.941833,11.058767 
	C110.948181,8.738079 110.954536,6.417392 110.956825,3.668493 
	C119.714333,3.753494 126.462730,8.517015 128.826599,15.856978 
	C131.185867,23.182671 129.000290,31.975079 122.844063,36.430908 
	C120.111290,38.408863 116.271889,38.857876 112.526520,40.002499 
	C111.967186,37.905220 111.816147,35.806343 112.062935,33.188629 
	C120.145874,29.939890 123.442780,24.115042 120.713264,17.881699 
	C118.868965,13.669930 115.165871,11.950264 110.941833,11.058767 
z"/>
<path fill="#c6c8cc" opacity="1.000000" stroke="none" 
	d="
M20.139408,5.049715 
	C20.193697,16.037144 20.247986,27.024572 19.984245,38.586624 
	C19.443922,39.441536 19.221630,39.721821 18.999340,40.002098 
	C17.606615,40.045704 16.213894,40.089310 14.323538,39.896297 
	C13.555203,39.757259 13.284502,39.854839 13.013801,39.952415 
	C12.691226,36.946983 12.166535,33.946732 12.089292,30.935005 
	C11.940881,25.148514 12.046076,19.355518 12.046076,13.321326 
	C9.769229,13.625709 7.885945,13.877478 5.689332,14.171134 
	C5.039383,11.958353 4.450695,9.954136 3.533681,6.832120 
	C8.671294,5.851086 13.426090,4.943151 18.742817,4.302588 
	C19.540018,4.804568 19.818237,4.964487 20.139408,5.049715 
z"/>

</svg>