<svg width="566.9" height="100" xmlns="http://www.w3.org/2000/svg" xmlns:xlink="http://www.w3.org/1999/xlink">
 <style type="text/css">.st0{clip-path:url(#SVGID_2_);}
	.st1{clip-path:url(#SVGID_4_);fill:#454347;}
	.st2{clip-path:url(#SVGID_4_);fill:#DC0532;}
	.st3{clip-path:url(#SVGID_6_);fill:#454347;}
	.st4{clip-path:url(#SVGID_6_);}
	.st5{clip-path:url(#SVGID_8_);fill:#FFFFFF;}
	.st6{clip-path:url(#SVGID_8_);fill:#DC0532;}
	.st7{clip-path:url(#SVGID_10_);fill:#DC0532;}
	.st8{clip-path:url(#SVGID_10_);}
	.st9{clip-path:url(#SVGID_12_);fill:#FFFFFF;}
	.st10{clip-path:url(#SVGID_14_);}
	.st11{clip-path:url(#SVGID_16_);fill:#454347;}
	.st12{clip-path:url(#SVGID_18_);}
	.st13{clip-path:url(#SVGID_20_);fill:#DC0532;}
	.st14{clip-path:url(#SVGID_22_);}
	.st15{clip-path:url(#SVGID_24_);fill:#FFFFFF;}
	.st16{clip-path:url(#SVGID_26_);}
	.st17{clip-path:url(#SVGID_28_);fill:#454347;}
	.st18{clip-path:url(#SVGID_28_);fill:#DC0532;}
	.st19{clip-path:url(#SVGID_30_);fill:#454347;}
	.st20{clip-path:url(#SVGID_30_);}
	.st21{clip-path:url(#SVGID_32_);fill:#FFFFFF;}
	.st22{clip-path:url(#SVGID_32_);fill:#DC0532;}
	.st23{clip-path:url(#SVGID_34_);fill:#454347;}
	.st24{clip-path:url(#SVGID_34_);}
	.st25{clip-path:url(#SVGID_36_);fill:#FFFFFF;}
	.st26{clip-path:url(#SVGID_38_);fill:#DC0532;}
	.st27{clip-path:url(#SVGID_38_);}
	.st28{clip-path:url(#SVGID_40_);fill:#FFFFFF;}
	.st29{clip-path:url(#SVGID_42_);}
	.st30{clip-path:url(#SVGID_44_);fill:#DC0532;}
	.st31{clip-path:url(#SVGID_46_);}
	.st32{clip-path:url(#SVGID_48_);fill:#454347;}
	.st33{clip-path:url(#SVGID_50_);}
	.st34{clip-path:url(#SVGID_52_);fill:#FFFFFF;}
	.st35{clip-path:url(#SVGID_54_);}
	.st36{clip-path:url(#SVGID_56_);fill:#454347;}
	.st37{clip-path:url(#SVGID_56_);fill:#DC0532;}
	.st38{clip-path:url(#SVGID_58_);fill:#454347;}
	.st39{clip-path:url(#SVGID_58_);}
	.st40{clip-path:url(#SVGID_60_);fill:#FFFFFF;}
	.st41{clip-path:url(#SVGID_60_);fill:#DC0532;}
	.st42{clip-path:url(#SVGID_62_);fill:#454347;}
	.st43{clip-path:url(#SVGID_62_);}
	.st44{clip-path:url(#SVGID_64_);fill:#FFFFFF;}
	.st45{clip-path:url(#SVGID_66_);fill:#DC0532;}
	.st46{clip-path:url(#SVGID_66_);}
	.st47{clip-path:url(#SVGID_68_);fill:#FFFFFF;}
	.st48{clip-path:url(#SVGID_70_);}
	.st49{clip-path:url(#SVGID_72_);fill:#454347;}
	.st50{clip-path:url(#SVGID_74_);}
	.st51{clip-path:url(#SVGID_76_);fill:#DC0532;}
	.st52{clip-path:url(#SVGID_78_);}
	.st53{clip-path:url(#SVGID_80_);fill:#FFFFFF;}</style>
 <g>
  <title>background</title>
  <rect x="-1" y="-1" width="568.9" height="102" id="canvas_background" fill="none"/>
 </g>
 <g>
  <title>Layer 1</title>
  <g id="svg_1">
   <g id="svg_2">
    <defs transform="translate(0,-1) translate(0,1) translate(0,1) translate(0,1) translate(0,1) translate(0,1) translate(0,1) translate(0,1) translate(0,1) translate(0,1) translate(0,1) ">
     <rect id="SVGID_21_" width="566.9" height="99.2"/>
    </defs>
    <clipPath transform="translate(0,-1) translate(0,1) translate(0,1) translate(0,1) translate(0,1) translate(0,1) translate(0,1) translate(0,1) translate(0,1) translate(0,1) translate(0,1) " id="SVGID_2_">
     <use xlink:href="#SVGID_21_" id="svg_3"/>
    </clipPath>
    <g class="st0" id="svg_4">
     <defs transform="translate(0,-1) translate(0,1) translate(0,1) translate(0,1) translate(0,1) translate(0,1) translate(0,1) translate(0,1) translate(0,1) translate(0,1) translate(0,1) ">
      <rect id="SVGID_23_" y="0" width="566.9" height="99.2"/>
     </defs>
     <clipPath transform="translate(0,-1) translate(0,1) translate(0,1) translate(0,1) translate(0,1) translate(0,1) translate(0,1) translate(0,1) translate(0,1) translate(0,1) translate(0,1) " id="SVGID_4_">
      <use xlink:href="#SVGID_23_" id="svg_5" y="22" x="0"/>
     </clipPath>
     <path d="m516.5,71.7c0,-5.4 3.9,-9.4 9,-9.4c5.1,0 9.1,4 9.1,9.4c0,5.4 -4.1,9.3 -9.1,9.3s-9,-3.9 -9,-9.3m8.4,16.6c4.2,0 7.5,-1.8 9.8,-4.5l0.5,3.7l6.8,0l0,-31.7l-6.7,0l-0.5,3.9c-2.3,-2.7 -5.6,-4.6 -9.9,-4.6c-8.7,0 -16,7.4 -16,16.6s7.2,16.6 16,16.6m-45.7,-16.6c0,-5.4 4,-9.4 9.1,-9.4c5,0 9,4 9,9.4c0,5.4 -3.9,9.3 -9,9.3c-5,0 -9.1,-3.9 -9.1,-9.3m9.8,16.6c8.8,0 16,-7.4 16,-16.6s-7.3,-16.6 -16,-16.6c-4.3,0 -7.6,1.9 -9.9,4.6l-0.5,-3.9l-6.7,0l0,13.2l0,0l0,18.5l0,0l0,10.8l7.7,0l0,-14c2.4,2.5 5.5,4 9.4,4m-49.9,-16.6c0,-5.4 3.9,-9.4 9,-9.4c5.1,0 9.1,4 9.1,9.4c0,5.4 -4.1,9.3 -9.1,9.3s-9,-3.9 -9,-9.3m8.3,16.6c4.2,0 7.5,-1.8 9.8,-4.5l0.5,3.7l6.8,0l0,-31.7l-6.7,0l-0.5,3.9c-2.3,-2.7 -5.6,-4.6 -9.9,-4.6c-8.7,0 -16,7.4 -16,16.6s7.2,16.6 16,16.6m-52,-0.7l7.7,0l0,-12.9l14.8,0l0,12.9l7.7,0l0,-31.9l-7.7,0l0,12l-14.8,0l0,-12l-7.7,0l0,31.9zm-7.8,0l0,-31.9l-7.7,0l-14.8,19.2l0,-19.2l-7.7,0l0,31.9l7.2,0l15.3,-20.3l0,20.3l7.7,0zm-46.4,0.9c4.7,0 8.7,-1.8 11.6,-4.4l-3.9,-5.5c-2,1.7 -4.3,2.8 -7.4,2.8c-5,0 -9.3,-4.1 -9.3,-9.6c0,-5.6 4.3,-9.7 9.3,-9.7c3,0 5.3,1.1 7.3,2.9l3.9,-5.6c-2.9,-2.6 -6.8,-4.4 -11.6,-4.4c-9.5,0 -16.6,7.5 -16.6,16.7c0.1,9.2 7.1,16.8 16.7,16.8m-62.1,-16.8c0,-5.4 3.9,-9.4 9,-9.4c5.1,0 9.1,4 9.1,9.4c0,5.4 -4.1,9.3 -9.1,9.3c-5.1,0 -9,-3.9 -9,-9.3m8.3,16.6c4.2,0 7.5,-1.8 9.8,-4.5l0.5,3.7l6.8,0l0,-31.7l-6.7,0l-0.5,3.9c-2.3,-2.7 -5.6,-4.6 -9.9,-4.6c-8.7,0 -16,7.4 -16,16.6s7.2,16.6 16,16.6m-52.5,-0.7l7.7,0l0,-24.7l15.2,0l0,24.7l7.7,0l0,-31.9l-30.7,0l0,31.9l0.1,0zm-38.4,0l7.7,0l0,-24.7l15.2,0l0,24.7l7.7,0l0,-31.9l-30.7,0l0,31.9l0.1,0zm-29.1,10.8l8.3,0l16.9,-42.6l-8.6,0l-8.2,22.8l-8.2,-22.8l-8.4,0l12.8,31.8l-4.6,10.8zm-34.7,-26.7c0,-5.4 4,-9.4 9.1,-9.4c5,0 9,4 9,9.4c0,5.4 -3.9,9.3 -9,9.3c-5,0 -9.1,-3.9 -9.1,-9.3m9.8,16.6c8.8,0 16,-7.4 16,-16.6s-7.3,-16.6 -16,-16.6c-4.3,0 -7.6,1.9 -9.9,4.6l-0.5,-3.9l-6.7,0l0,13.2l0,0l0,18.5l0,0l0,10.8l7.7,0l0,-14c2.4,2.5 5.5,4 9.4,4m-43,-0.7l7.7,0l0,-24.8l14.4,0l0,-7.1l-22.1,0l0,31.9z" fill="#FFFFFF" clip-path="url(#SVGID_4_)" id="svg_6"/>
     <path d="m71.4,96.6c2,0 3.5,-1.6 3.5,-3.5l0,-43c0,-2 -1.6,-3.5 -3.6,-3.5c-0.4,0 -1.3,0.1 -1.7,0.2c-6.1,0.8 -16.3,3.4 -24.1,10.9c-9.5,9.1 -4.4,16.6 3.6,15.8c0.2,0 0.3,0.2 0,0.3c-4.6,1 -13.3,0.8 -16.3,-8.7c-2.8,-9.1 4,-18.4 4,-18.4l-8.3,0c-1.9,0 -3.5,1.6 -3.5,3.5l0,43c0,1.7 1.4,3.7 4.1,3.4c5.7,-0.6 17,-3.1 25.3,-11c9.5,-9.1 4.4,-16.6 -3.5,-15.7c-0.2,0 -0.3,-0.2 0,-0.3c4.6,-1 13.3,-0.8 16.3,8.7c2.8,9.1 -4,18.4 -4,18.4l8.2,0l0,-0.1z" fill="#FFFFFF" clip-path="url(#SVGID_4_)" id="svg_7"/>
    </g>
   </g>
  </g>
 </g>
</svg>