<?xml version="1.0" encoding="utf-8"?>
<!-- Generator: Adobe Illustrator 22.1.0, SVG Export Plug-In . SVG Version: 6.00 Build 0)  -->
<svg version="1.1" id="Layer_1" xmlns="http://www.w3.org/2000/svg" xmlns:xlink="http://www.w3.org/1999/xlink" x="0px" y="0px"
	 viewBox="0 0 566.9 99.2" style="enable-background:new 0 0 566.9 99.2;" xml:space="preserve">
<style type="text/css">
	.st0{clip-path:url(#SVGID_2_);}
	.st1{clip-path:url(#SVGID_4_);fill:#454347;}
	.st2{clip-path:url(#SVGID_4_);fill:#DC0532;}
	.st3{clip-path:url(#SVGID_6_);fill:#454347;}
	.st4{clip-path:url(#SVGID_6_);}
	.st5{clip-path:url(#SVGID_8_);fill:#FFFFFF;}
	.st6{clip-path:url(#SVGID_8_);fill:#DC0532;}
	.st7{clip-path:url(#SVGID_10_);fill:#DC0532;}
	.st8{clip-path:url(#SVGID_10_);}
	.st9{clip-path:url(#SVGID_12_);fill:#FFFFFF;}
	.st10{clip-path:url(#SVGID_14_);}
	.st11{clip-path:url(#SVGID_16_);fill:#454347;}
	.st12{clip-path:url(#SVGID_18_);}
	.st13{clip-path:url(#SVGID_20_);fill:#DC0532;}
	.st14{clip-path:url(#SVGID_22_);}
	.st15{clip-path:url(#SVGID_24_);fill:#FFFFFF;}
	.st16{clip-path:url(#SVGID_26_);}
	.st17{clip-path:url(#SVGID_28_);fill:#454347;}
	.st18{clip-path:url(#SVGID_28_);fill:#DC0532;}
	.st19{clip-path:url(#SVGID_30_);fill:#454347;}
	.st20{clip-path:url(#SVGID_30_);}
	.st21{clip-path:url(#SVGID_32_);fill:#FFFFFF;}
	.st22{clip-path:url(#SVGID_32_);fill:#DC0532;}
	.st23{clip-path:url(#SVGID_34_);fill:#454347;}
	.st24{clip-path:url(#SVGID_34_);}
	.st25{clip-path:url(#SVGID_36_);fill:#FFFFFF;}
	.st26{clip-path:url(#SVGID_38_);fill:#DC0532;}
	.st27{clip-path:url(#SVGID_38_);}
	.st28{clip-path:url(#SVGID_40_);fill:#FFFFFF;}
	.st29{clip-path:url(#SVGID_42_);}
	.st30{clip-path:url(#SVGID_44_);fill:#DC0532;}
	.st31{clip-path:url(#SVGID_46_);}
	.st32{clip-path:url(#SVGID_48_);fill:#454347;}
	.st33{clip-path:url(#SVGID_50_);}
	.st34{clip-path:url(#SVGID_52_);fill:#FFFFFF;}
	.st35{clip-path:url(#SVGID_54_);}
	.st36{clip-path:url(#SVGID_56_);fill:#454347;}
	.st37{clip-path:url(#SVGID_56_);fill:#DC0532;}
	.st38{clip-path:url(#SVGID_58_);fill:#454347;}
	.st39{clip-path:url(#SVGID_58_);}
	.st40{clip-path:url(#SVGID_60_);fill:#FFFFFF;}
	.st41{clip-path:url(#SVGID_60_);fill:#DC0532;}
	.st42{clip-path:url(#SVGID_62_);fill:#454347;}
	.st43{clip-path:url(#SVGID_62_);}
	.st44{clip-path:url(#SVGID_64_);fill:#FFFFFF;}
	.st45{clip-path:url(#SVGID_66_);fill:#DC0532;}
	.st46{clip-path:url(#SVGID_66_);}
	.st47{clip-path:url(#SVGID_68_);fill:#FFFFFF;}
	.st48{clip-path:url(#SVGID_70_);}
	.st49{clip-path:url(#SVGID_72_);fill:#454347;}
	.st50{clip-path:url(#SVGID_74_);}
	.st51{clip-path:url(#SVGID_76_);fill:#DC0532;}
	.st52{clip-path:url(#SVGID_78_);}
	.st53{clip-path:url(#SVGID_80_);fill:#FFFFFF;}
</style>
<g>
	<g>
		<defs>
			<rect id="SVGID_21_" width="566.9" height="99.2"/>
		</defs>
		<clipPath id="SVGID_2_">
			<use xlink:href="#SVGID_21_"  style="overflow:visible;"/>
		</clipPath>
		<g class="st0">
			<defs>
				<rect id="SVGID_23_" y="0" width="566.9" height="99.2"/>
			</defs>
			<clipPath id="SVGID_4_">
				<use xlink:href="#SVGID_23_"  style="overflow:visible;"/>
			</clipPath>
			<path style="clip-path:url(#SVGID_4_);fill:#FFFFFF;" d="M516.5,49.7c0-5.4,3.9-9.4,9-9.4c5.1,0,9.1,4,9.1,9.4
				c0,5.4-4.1,9.3-9.1,9.3S516.5,55.1,516.5,49.7 M524.9,66.3c4.2,0,7.5-1.8,9.8-4.5l0.5,3.7h6.8V33.8h-6.7l-0.5,3.9
				c-2.3-2.7-5.6-4.6-9.9-4.6c-8.7,0-16,7.4-16,16.6S516.1,66.3,524.9,66.3 M479.2,49.7c0-5.4,4-9.4,9.1-9.4c5,0,9,4,9,9.4
				c0,5.4-3.9,9.3-9,9.3C483.3,59,479.2,55.1,479.2,49.7 M489,66.3c8.8,0,16-7.4,16-16.6s-7.3-16.6-16-16.6c-4.3,0-7.6,1.9-9.9,4.6
				l-0.5-3.9h-6.7V47l0,0v18.5h0v10.8h7.7v-14C482,64.8,485.1,66.3,489,66.3 M439.1,49.7c0-5.4,3.9-9.4,9-9.4c5.1,0,9.1,4,9.1,9.4
				c0,5.4-4.1,9.3-9.1,9.3S439.1,55.1,439.1,49.7 M447.4,66.3c4.2,0,7.5-1.8,9.8-4.5l0.5,3.7h6.8V33.8h-6.7l-0.5,3.9
				c-2.3-2.7-5.6-4.6-9.9-4.6c-8.7,0-16,7.4-16,16.6S438.6,66.3,447.4,66.3 M395.4,65.6h7.7V52.7h14.8v12.9h7.7V33.7h-7.7v12h-14.8
				v-12h-7.7V65.6z M387.6,65.6V33.7h-7.7l-14.8,19.2V33.7h-7.7v31.9h7.2l15.3-20.3v20.3H387.6z M341.2,66.5c4.7,0,8.7-1.8,11.6-4.4
				l-3.9-5.5c-2,1.7-4.3,2.8-7.4,2.8c-5,0-9.3-4.1-9.3-9.6c0-5.6,4.3-9.7,9.3-9.7c3,0,5.3,1.1,7.3,2.9l3.9-5.6
				c-2.9-2.6-6.8-4.4-11.6-4.4c-9.5,0-16.6,7.5-16.6,16.7C324.6,58.9,331.6,66.5,341.2,66.5 M279.1,49.7c0-5.4,3.9-9.4,9-9.4
				c5.1,0,9.1,4,9.1,9.4c0,5.4-4.1,9.3-9.1,9.3C283,59,279.1,55.1,279.1,49.7 M287.4,66.3c4.2,0,7.5-1.8,9.8-4.5l0.5,3.7h6.8V33.8
				h-6.7l-0.5,3.9c-2.3-2.7-5.6-4.6-9.9-4.6c-8.7,0-16,7.4-16,16.6S278.6,66.3,287.4,66.3 M234.9,65.6h7.7V40.9h15.2v24.7h7.7V33.7
				h-30.7V65.6z M196.5,65.6h7.7V40.9h15.2v24.7h7.7V33.7h-30.7V65.6z M167.4,76.4h8.3l16.9-42.6H184l-8.2,22.8l-8.2-22.8h-8.4
				l12.8,31.8L167.4,76.4z M132.7,49.7c0-5.4,4-9.4,9.1-9.4c5,0,9,4,9,9.4c0,5.4-3.9,9.3-9,9.3C136.8,59,132.7,55.1,132.7,49.7
				 M142.5,66.3c8.8,0,16-7.4,16-16.6s-7.3-16.6-16-16.6c-4.3,0-7.6,1.9-9.9,4.6l-0.5-3.9h-6.7V47l0,0v18.5h0v10.8h7.7v-14
				C135.5,64.8,138.6,66.3,142.5,66.3 M99.5,65.6h7.7V40.8h14.4v-7.1H99.5V65.6z"/>
			<path style="clip-path:url(#SVGID_4_);fill:#FFFFFF;" d="M71.4,74.6c2,0,3.5-1.6,3.5-3.5V28.1c0-2-1.6-3.5-3.6-3.5
				c-0.4,0-1.3,0.1-1.7,0.2c-6.1,0.8-16.3,3.4-24.1,10.9c-9.5,9.1-4.4,16.6,3.6,15.8c0.2,0,0.3,0.2,0,0.3c-4.6,1-13.3,0.8-16.3-8.7
				c-2.8-9.1,4-18.4,4-18.4h-8.3c-1.9,0-3.5,1.6-3.5,3.5v43c0,1.7,1.4,3.7,4.1,3.4c5.7-0.6,17-3.1,25.3-11
				c9.5-9.1,4.4-16.6-3.5-15.7c-0.2,0-0.3-0.2,0-0.3c4.6-1,13.3-0.8,16.3,8.7c2.8,9.1-4,18.4-4,18.4H71.4z"/>
		</g>
	</g>
</g>
</svg>
