<?xml version="1.0"?>
<svg width="546.85986" height="213.44859" xmlns="http://www.w3.org/2000/svg" xmlns:svg="http://www.w3.org/2000/svg" version="1.1">
 <g class="layer">
  <title>Layer 1</title>
  <g id="layer1" opacity="0.72">
   <path d="m514.04,63.83c0,0 -25.07,26.71 -29.4,31.32l0,-31.32l-20.17,0l0,85.63l20.17,0l0,-28.89c0.63,-0.65 4.73,-4.87 6.41,-6.6c1.89,2.71 24.9,35.49 24.9,35.49l25.91,0c0,0 -35.19,-48.22 -36.62,-50.19c1.7,-1.7 35.34,-35.44 35.34,-35.44l-26.54,0m-132.48,28.47l-0.12,1.59l19.94,0l0.29,-1.09c1.3,-4.75 3.71,-13.59 17.01,-13.59c3.26,0 13.84,1.27 17.59,16.61l-22.83,0l0,17.21l23.72,0c-0.99,7.42 -4.71,21.05 -18.59,21.05c-8.84,0 -14.99,-5.38 -16.87,-14.75l-0.24,-1.19l-20.21,0l0.34,1.76c3.82,20.15 17.43,31.71 37.33,31.71c24.3,0 39.4,-17.18 39.4,-44.85c0,-27.39 -15.56,-45.09 -39.64,-45.09c-23.93,0 -36.02,15.88 -37.12,30.63m-19.74,-28.47c0,0 -14.22,38.28 -16.32,43.93c-2.63,-5.45 -21.21,-43.93 -21.21,-43.93l-22.87,0c0,0 33.63,64.04 34.37,65.45c-2.44,4.35 -3.47,5.02 -7.19,5.02c-1.94,0 -4.82,-0.64 -6.11,-1.22l-2.1,-0.95l0,18.13l1.13,0.28c1.91,0.48 7.34,1.07 10.94,1.07c8.81,0 15.05,-2.58 20.84,-15.8c0,0 31.31,-71.98 31.31,-71.98l-22.79,0m-120.83,9.27c-7.44,7.95 -11.37,19.59 -11.37,33.66c0,27.67 15.01,44.85 39.17,44.85c19.89,0 33.49,-11.56 37.32,-31.71l0.33,-1.76l-20.2,0l-0.24,1.19c-1.89,9.37 -8.04,14.75 -16.88,14.75c-14.26,0 -19.35,-14 -19.35,-27.1c0,-20.48 10,-27.77 19.35,-27.77c13.21,0 15.61,8.84 16.9,13.59l0.3,1.09l19.93,0l-0.12,-1.59c-1.11,-14.75 -13.2,-30.63 -37.11,-30.63c-11.35,0 -21.04,3.95 -28.03,11.43" fill="#ffffff" fill-rule="nonzero" id="path882" stroke="#000000"/>
   <path d="m140.79,121.71c-0.84,0.84 -29.39,28.98 -31.39,30.99l0,0c3.88,2.8 20.57,13.17 42.87,5.52l0,0c1.7,-0.61 4.69,-1.37 6.45,-2.22l0,0l1.78,-1.91c5.39,-6.26 12.47,-14.71 16.45,-32.38l0,0c-6.44,-2.73 -13.98,-4.52 -20.88,-4.52l0,0c-5.94,0 -11.4,1.33 -15.28,4.52" fill="#ffffff" id="path912" stroke="#000000"/>
   <path d="m91.95,36.97c0,0 -7.59,2.05 -7.61,2.05l0,0l-4.31,1.56c-6.39,2.58 -12.1,6.36 -17.45,10.64l0,0c26.13,-7.78 44.7,7.45 44.99,7.69l0,0c0,0 32.32,25.97 33.22,26.88l0,0c7.99,7.99 26.51,8.66 35.16,1.96l0,0c-2.09,-8.98 -10.38,-24.76 -19.29,-32.38l0,0l-2.47,-2.26c-6.71,-5.63 -12.33,-9.28 -20.96,-12.76l0,0l-4.57,-1.61c0,0 -7.26,-1.87 -7.26,-1.87l0,0c-4.75,-0.98 -10.12,-1.4 -14.99,-1.4l0,0c-4.85,0 -9.72,0.5 -14.46,1.5" fill="#ffffff" id="path938" stroke="#000000"/>
   <path d="m52.19,136.45c0,4.67 0.69,9.8 2.46,15.26l0,0c0.65,1.93 1.46,3.89 2.4,5.9l0,0l0.11,0.25c6.65,6.48 14.35,11.55 22.9,15l0,0l4.33,1.55l7.59,2.06c4.74,1 9.62,1.5 14.49,1.5l0,0c4.85,0 9.72,-0.32 14.46,-1.31l0,0c0,0 7.75,-1.95 7.77,-1.96l0,0l5.13,-1.84c6.38,-2.58 12.79,-6.35 18.14,-10.65l0,0c-26.14,7.78 -46.35,-7.43 -46.57,-7.6l0,0l-0.04,-0.04c0,0 -42.65,-42.65 -44.91,-44.9l0,0c-2.05,2.88 -8.26,12.75 -8.26,26.78" fill="#ffffff" id="path964" stroke="#000000"/>
   <path d="m60.58,55.21c-1.67,0.61 -3.4,1.33 -5.13,2.16l0,0l-0.15,0.06c-6.49,6.66 -11.55,14.37 -15,22.91l0,0l-1.56,4.32l-2.05,7.6c-1,4.73 -1.49,9.6 -1.49,14.47l0,0c0,4.87 0.49,9.75 1.49,14.48l0,0l2.05,7.6l1.56,4.32c2.59,6.41 6.36,12.11 10.66,17.45l0,0c-1.58,-5.29 -2.31,-10.32 -2.31,-14.9l0,0c0,-18.02 9.75,-29.83 9.89,-29.99l0,0l0.05,-0.06c0,0 42.66,-42.65 44.91,-44.89l0,0c-2.89,-2.06 -12.77,-8.28 -26.76,-8.29l0,0c-4.91,0 -10.34,0.77 -16.16,2.76" fill="#ffffff" id="path994" stroke="#000000"/>
   <path d="m190.04,101.09l0,-0.48c3.72,-8 10.7,-8.16 18.39,-0.87c0,-12.2 -2.62,-21.88 -8.49,-27.35c-8.3,-7.37 -16.99,-2.57 -24.09,-12.6c-0.84,-8.75 5.18,-12.45 15.53,-10c-6.17,-10.46 -13.32,-17.53 -21.08,-19.34c-1.75,-0.39 -3.33,-0.49 -4.84,-0.31c-2.94,0.14 -5.47,1.02 -7.92,1.74c-1.27,0.38 -2.56,0.78 -3.82,1.04c-0.87,0.14 -1.74,0.3 -2.7,0.3c-2.32,0.15 -4.88,-0.25 -7.89,-1.65c-4.99,-7.11 -1.81,-13.1 7.89,-16.2c0.25,-0.05 0.42,-0.13 0.57,-0.23c-0.15,-0.07 -0.32,-0.16 -0.57,-0.21c-5.3,-3.04 -10.46,-5.18 -15.14,-6.2c-4.52,-0.95 -8.64,-1.03 -12.28,0.08c-8.4,2.85 -10.23,9.83 -16.97,13.07c-1.43,0.73 -3.24,1.27 -5.39,1.51l-0.47,0c-8.01,-3.73 -8.17,-10.7 -0.89,-18.39c-9.34,0 -17.27,1.59 -22.98,4.92c-1.66,1.02 -3.16,2.21 -4.45,3.56c-6.65,7.63 -3.25,15.53 -10.3,22.28c-0.63,0.64 -1.4,1.22 -2.22,1.82l-0.39,0l-0.08,0c-1.43,0.09 -2.69,0 -3.89,-0.23c-5.63,-1.35 -7.68,-6.9 -5.63,-15.3c-0.77,0.47 -1.57,0.95 -2.37,1.42c-9.19,5.79 -15.46,12.36 -17.12,19.5c-2.23,10.96 6.41,16.11 1.03,27.43c-7.22,5.15 -13.4,1.83 -16.42,-8.39c-6.1,10.62 -8.65,20.36 -6.34,27.98c3.56,10.39 13.24,10.62 14.66,22.43l0,0.49c-3.64,8 -10.69,8.23 -18.38,0.95c0,12.12 2.69,21.88 8.55,27.35c8.31,7.29 17,2.5 24.12,12.52c0.83,8.74 -5.19,12.45 -15.56,9.99c6.2,10.55 13.33,17.68 21.1,19.43c1.58,0.33 3.01,0.4 4.36,0.4c2.94,-0.16 5.47,-0.95 8,-1.74c1.27,-0.41 2.54,-0.79 3.89,-1.13l0.08,0c0.87,-0.14 1.75,-0.32 2.61,-0.38c2.52,-0.14 5.19,0.23 8.32,1.7c4.96,7.17 1.69,13.24 -8.32,16.31c0,0 -0.07,0.07 -0.15,0.07c0.08,0.09 0.15,0.09 0.15,0.14c5.24,2.95 10.16,4.99 14.75,6.12c4.83,1.11 9.19,1.19 13.08,0c8.32,-2.77 10.17,-9.67 16.65,-12.93c1.58,-0.8 3.4,-1.34 5.71,-1.65l0.47,0c8.02,3.72 8.18,10.7 0.88,18.39c8.95,0 16.57,-1.43 22.19,-4.52c1.99,-1.12 3.74,-2.39 5.25,-3.97c6.56,-7.54 3.32,-15.29 9.89,-21.96c0.8,-0.79 1.68,-1.51 2.7,-2.23c-0.07,0.08 -0.15,0.08 -0.15,0.08c0,-0.08 0.08,-0.08 0.15,-0.15c0,0 0.08,-0.08 0.15,-0.08c-0.04,0.05 -0.09,0.1 -0.15,0.15c1.35,-0.07 2.64,0 3.82,0.16c5.92,1.12 8.16,6.75 6.09,15.4c0.63,-0.33 1.27,-0.73 1.83,-1.13c9.52,-5.86 15.94,-12.6 17.61,-19.89c2.22,-11.02 -6.44,-16.09 -1.12,-27.44c0,0.09 -0.08,0.18 -0.08,0.24c7.22,-5.07 13.39,-1.74 16.42,8.41c6.1,-10.55 8.64,-20.3 6.33,-27.91c-3.49,-10.39 -13.24,-10.7 -14.58,-22.52m-24.58,-45.59c11.97,13.72 19.26,31.64 19.26,51.22c0,19.59 -7.29,37.51 -19.26,51.22c-2.45,2.87 -5.08,5.47 -7.92,7.92c-1.27,1.03 -2.56,2.07 -3.82,3.09c-0.87,0.64 -1.74,1.28 -2.7,1.92c-4.67,3.25 -9.74,6.02 -15.14,8.24c-9.03,3.65 -18.94,5.64 -29.25,5.64c-10.46,0 -20.54,-2.07 -29.73,-5.88c-5.15,-2.22 -10.15,-4.91 -14.75,-8.16c-0.86,-0.64 -1.74,-1.27 -2.61,-1.91l-0.08,-0.07c-1.35,-1.04 -2.62,-2.05 -3.89,-3.19c-2.85,-2.44 -5.54,-5.14 -8,-8c-11.74,-13.63 -18.86,-31.47 -18.86,-50.82c0,-19.43 7.12,-37.17 18.86,-50.91c2.46,-2.85 5.15,-5.54 8,-7.99c1.27,-1.12 2.54,-2.15 3.89,-3.18c0,0 0.08,0 0.08,-0.08c0.87,-0.64 1.75,-1.26 2.61,-1.89c4.6,-3.11 9.6,-5.88 14.75,-8.02c9.19,-3.8 19.27,-5.95 29.73,-5.95c10.31,0 20.22,2.06 29.25,5.71c5.4,2.15 10.47,4.92 15.14,8.16c0.96,0.57 1.83,1.28 2.7,1.93c1.26,0.94 2.55,1.95 3.82,3l7.92,8" fill="#ffffff" fill-rule="nonzero" id="path1006" stroke="#000000"/>
  </g>
 </g>
</svg>