<?xml version="1.0" standalone="no"?>
<!DOCTYPE svg PUBLIC "-//W3C//DTD SVG 20010904//EN"
 "http://www.w3.org/TR/2001/REC-SVG-20010904/DTD/svg10.dtd">
<svg version="1.0" xmlns="http://www.w3.org/2000/svg"
 width="1633.000000pt" height="1667.000000pt" viewBox="0 0 1633.000000 1667.000000"
 preserveAspectRatio="xMidYMid meet">

<g transform="translate(0.000000,1667.000000) scale(0.100000,-0.100000)"
fill="#000000" stroke="none">
<path d="M14246 15660 c-1059 -67 -1983 -324 -2996 -835 -1868 -943 -3251
-2649 -3840 -4736 -117 -415 -182 -765 -230 -1234 -67 -655 -159 -1350 -211
-1593 -202 -938 -1130 -1964 -2149 -2375 -245 -99 -557 -194 -695 -211 -91
-11 -84 -47 -96 499 -13 568 -5 2970 10 3210 19 286 49 486 117 765 115 471
281 807 609 1240 248 325 518 576 880 815 334 221 689 389 1040 491 202 59
661 144 778 144 81 0 115 34 221 222 485 859 1175 1669 1991 2339 133 110 350
269 535 394 300 202 401 277 398 294 -17 86 -1184 422 -1718 495 -273 38 -447
48 -937 53 -643 7 -993 -11 -1378 -73 -1427 -229 -2739 -856 -3825 -1830 -186
-166 -535 -526 -699 -719 -810 -959 -1387 -2118 -1650 -3316 -65 -300 -109
-589 -142 -949 -26 -284 -17 -7253 10 -7824 l6 -130 30 -8 c93 -24 354 -31
1535 -35 1480 -6 1619 -2 2320 73 975 103 1690 308 2565 733 1389 676 2398
1605 3141 2894 432 748 752 1548 908 2272 73 337 103 549 151 1085 78 852 146
1271 265 1630 228 686 763 1355 1435 1795 302 198 580 331 915 439 389 126
624 158 1280 176 411 11 730 26 738 35 26 26 27 3703 1 3729 -12 12 -117 26
-274 36 -220 14 -870 21 -1039 10z"/>
<path d="M14280 11324 c-190 -22 -485 -89 -665 -150 -465 -156 -843 -400
-1245 -804 -259 -259 -442 -505 -591 -794 -94 -182 -146 -308 -234 -566 l-67
-195 6 -3280 c3 -1804 9 -3581 13 -3949 l6 -669 1201 7 c661 3 1526 9 1924 12
l722 7 -5 1426 c-20 5228 -42 6288 -141 6861 -14 80 -39 225 -55 323 -34 211
-77 383 -159 652 -117 382 -290 844 -373 999 -54 102 -80 116 -209 121 -51 2
-109 1 -128 -1z"/>
</g>
</svg>
