<svg width="236" height="40" viewBox="0 0 236 40" fill="none" xmlns="http://www.w3.org/2000/svg">

<path d="M19.8065 19.8047C19.1887 27.0041 14.3283 32.044 7.56841 32.044L7.5693 20.4475C7.5693 13.348 13.3241 7.59224 20.4233 7.59224C20.8369 7.59224 21.2449 7.61259 21.6483 7.65136C22.5173 6.32768 23.5189 5.11092 24.6489 4.01672C25.653 3.04398 26.7452 2.18248 27.9143 1.4349C25.5948 0.518969 23.0681 0.0171231 20.4233 0.0171231C9.14401 0.0171231 0 9.16054 0 20.4402V39.6094H7.56841C18.5067 39.6094 26.3718 31.4576 27.3728 19.8047C27.9911 12.6059 32.9029 7.566 40.8464 7.566L40.8467 0.00109599C28.6208 0.00109599 20.808 8.15283 19.8065 19.8047V19.8047ZM31.5285 13.9718C32.6398 15.873 33.2774 18.0855 33.2774 20.4475L33.2777 39.6094H40.8464V20.4402C40.8464 16.6075 39.7895 13.0195 37.952 9.95502C35.1891 10.5113 32.9987 11.8953 31.5285 13.9718" fill="#c6c8cc"></path>

<path d="M128.268 31.3439H133.667V28.3383H128.268V23.7533H134.562V20.7472H124.842V39.6083H133.872L135.112 36.6013H128.268V31.3439ZM154.159 29.9087C154.874 29.4733 155.261 28.751 155.611 28.0811C156.414 26.5478 158.697 20.7472 158.697 20.7472H155.302C155.302 20.7472 153.347 25.7856 152.906 26.7633C152.295 28.119 151.853 28.451 150.66 28.451H149.616V20.7472H146.244V28.451H144.858C143.664 28.451 143.224 28.119 142.61 26.7633C142.171 25.7856 140.216 20.7472 140.216 20.7472H136.821C136.821 20.7472 139.104 26.5478 139.908 28.0811C140.259 28.751 140.644 29.4733 141.36 29.9087C140.496 30.3557 139.982 31.1269 139.647 31.7668C138.845 33.2981 136.298 39.6083 136.298 39.6083H139.955C139.955 39.6083 142.169 34.0617 142.61 33.0831C143.217 31.7449 143.607 31.4565 144.816 31.4565H146.244V39.6083H149.616V31.4565H150.704C151.911 31.4565 152.302 31.7449 152.906 33.0831C153.347 34.0617 155.564 39.6083 155.564 39.6083H159.222C159.222 39.6083 156.674 33.2981 155.87 31.7668C155.536 31.1269 155.022 30.3557 154.159 29.9087V29.9087ZM209.256 23.7533H213.108V39.6083H216.534V23.7533H220.428V20.7472H209.256V23.7533ZM172.119 28.2253H164.957V20.7472H161.532V39.6083H164.957V31.2309H172.119V39.6083H175.544V20.7472H172.119V28.2253ZM182.132 31.3439H187.53V28.3383H182.132V23.7533H188.426V20.7472H178.705V39.6083H188.594V36.6013H182.132V31.3439ZM67.9374 33.0767L69.8953 27.8467L71.8628 33.0767H67.9374ZM69.7126 20.5798L61.7917 39.6083H65.4927L66.8444 35.997H72.9596L74.3187 39.6083H78.1077L70.1204 20.5798H69.7126ZM204.719 33.8011C204.094 34.7054 203.034 35.2377 201.567 35.3848V24.7197C202.34 24.8012 202.996 24.9925 203.515 25.2911C204.064 25.6056 204.506 26.0119 204.829 26.4968C205.155 26.9846 205.385 27.5432 205.512 28.1583C205.639 28.7845 205.704 29.4348 205.704 30.0936C205.704 31.6095 205.372 32.856 204.719 33.8011V33.8011ZM198.141 35.4086C197.4 35.3125 196.757 35.1291 196.229 34.8649C195.67 34.5859 195.214 34.216 194.873 33.769C194.533 33.3176 194.281 32.7773 194.126 32.1628C193.971 31.541 193.893 30.8362 193.893 30.0659C193.893 29.3509 193.971 28.6738 194.126 28.052C194.281 27.4375 194.537 26.8827 194.89 26.4036C195.242 25.926 195.699 25.5328 196.248 25.2357C196.765 24.9556 197.402 24.7736 198.141 24.692V35.4086ZM207.734 24.8237C207.184 24.0344 206.392 23.3514 205.38 22.7946C204.393 22.2506 203.111 21.9142 201.567 21.7927V20.7472H198.114V21.7927C196.549 21.9157 195.257 22.2762 194.269 22.8674C193.259 23.4708 192.455 24.1843 191.878 24.9896C191.3 25.7934 190.902 26.652 190.694 27.5423C190.488 28.4257 190.381 29.2271 190.381 29.9247C190.381 30.7896 190.482 31.7041 190.679 32.6419C190.878 33.5884 191.266 34.4796 191.834 35.2936C192.403 36.1105 193.215 36.8124 194.245 37.3789C195.251 37.9322 196.562 38.2555 198.141 38.3414V39.6083H201.567V38.3365C203.039 38.1973 204.269 37.8609 205.226 37.3367C206.208 36.7979 207.003 36.1266 207.593 35.3396C208.179 34.5547 208.591 33.6802 208.82 32.7438C209.045 31.8119 209.158 30.8648 209.158 29.9247C209.158 29.1165 209.059 28.2544 208.862 27.3618C208.663 26.4618 208.283 25.6079 207.734 24.8237V24.8237ZM117.951 35.9736C117.398 36.428 116.654 36.6581 115.737 36.6581H112.736V31.0649H115.905C116.978 31.0649 117.73 31.3308 118.14 31.855C118.56 32.39 118.771 33.0884 118.771 33.9321C118.771 34.8378 118.495 35.5252 117.951 35.9736ZM116.072 28.1432H112.739V23.7533H120.629V20.7472H109.312V39.6083H115.988C122.051 39.6083 122.225 34.5373 122.225 33.9592C122.225 32.2109 121.626 28.1432 116.072 28.1432ZM102.138 26.2385L100.109 31.7071L98.124 26.4328L95.9081 20.7472H92.3108L98.3648 35.2173C98.3089 35.3344 98.1679 35.6352 98.0255 35.9169C97.7146 36.5343 97.274 37.1692 96.3763 37.2012H96.3145C95.8134 37.2012 94.4312 37.0294 94.4312 37.0294L94.115 39.5777C94.115 39.5777 95.5808 39.9039 96.0006 39.9441C96.4024 39.982 96.7275 40 96.9944 40H96.9982C97.6654 39.9811 98.2433 39.8646 98.7145 39.6535C99.1864 39.4408 99.6106 39.1293 99.9767 38.7253C100.338 38.324 100.673 37.8259 100.976 37.2406C101.271 36.6677 101.583 36.0057 101.905 35.2683L107.758 20.7472H104.201L102.138 26.2385ZM229.307 36.6021H226.058V30.8959H229.419C231.757 30.8959 232.38 32.7336 232.38 33.82C232.38 34.6567 232.08 36.6021 229.307 36.6021ZM229.671 27.9748H226.058V20.7472H222.632V39.6083H229.671C233.35 39.6083 235.824 37.3163 235.824 33.9044C235.824 33.2966 235.651 27.9748 229.671 27.9748ZM85.6894 29.4595H82.8503V23.7533H85.5775C88.3518 23.7533 88.6508 25.6988 88.6508 26.5361C88.6508 27.6219 88.0267 29.4595 85.6894 29.4595ZM85.9414 20.7472H79.4244V39.6083H82.8503V32.4468H85.9414C91.9216 32.4468 92.0946 27.0662 92.0946 26.4517C92.0946 23.0398 89.6222 20.7472 85.9414 20.7472ZM59.054 29.5125C59.7377 29.1785 60.3192 28.668 60.7852 27.9917C61.2966 27.2468 61.5561 26.4007 61.5561 25.4754C61.5561 23.9354 61.1229 22.9117 60.0605 21.9404C59.0286 21.0011 56.6928 20.5798 54.8341 20.5798C52.5635 20.5798 50.4089 20.9997 50.4089 20.9997L50.7945 23.7665C50.7945 23.7665 52.8393 23.5474 54.4866 23.5474C55.3388 23.5474 58.1228 23.712 58.1228 25.8415C58.1228 28.1394 55.4797 28.1656 55.4521 28.1656H52.7717V31.0547H54.9422C58.3323 31.0547 58.5962 33.22 58.5962 33.884C58.5962 36.6188 55.3604 36.8307 54.3688 36.8307C52.3107 36.8307 49.9281 36.3342 49.9281 36.3342L49.3672 39.2064C49.3672 39.2064 51.7297 39.8602 54.509 39.8602C56.2559 39.8602 61.9512 39.4234 61.9512 33.8011C61.9512 31.1392 59.9971 29.8635 59.054 29.5125" fill="#c6c8cc"></path>
</svg>